<?xml version="1.0" encoding="utf-8"?>
<!-- Generator: Adobe Illustrator 16.0.0, SVG Export Plug-In . SVG Version: 6.00 Build 0)  -->
<!DOCTYPE svg PUBLIC "-//W3C//DTD SVG 1.1//EN" "http://www.w3.org/Graphics/SVG/1.1/DTD/svg11.dtd">
<svg version="1.1" id="Layer_1" xmlns="http://www.w3.org/2000/svg" xmlns:xlink="http://www.w3.org/1999/xlink" x="0px" y="0px"
	 width="399.474px" height="455.805px" viewBox="0 0 399.474 455.805" enable-background="new 0 0 399.474 455.805"
	 xml:space="preserve">
<g>
	<g>
		<path fill-rule="evenodd" clip-rule="evenodd" d="M202.245-1336.091c-0.34,19.01-6.09,34.952-19.018,47.88
			c-17.844,17.845-45.129,17.635-62.992-0.335c-22.57-22.704-24.678-62.972-4.598-87.848c19.732-24.446,54.221-23.676,73.42,1.531
			C198.022-1363.091,201.965-1349.753,202.245-1336.091z M156.657-1351.89c-1.852,0.584-3.363,1.061-5.094,1.607
			c-2.316-6.021-4.564-11.869-6.842-17.789c-8.299,3.08-13.84,8.601-18.48,15.529c3.949,4.474,7.814,8.856,11.818,13.395
			c-1.385,1.62-2.635,3.082-4.162,4.866c-3.969-3.868-7.588-7.396-11.436-11.146c-2.906,7.386-5.021,14.871-3.838,22.999
			c4.324,0.415,8.369,0.803,12.207,1.171c0,2.141,0,3.941,0,5.945c-4.025-0.184-7.723-0.35-12.352-0.559
			c1.701,5.226,3.236,9.94,4.955,15.219c3.902-3.439,7.141-6.293,10.416-9.18c1.479,1.218,2.676,2.203,3.971,3.27
			c-3.705,3.997-6.916,7.461-10.252,11.058c3.865,5.336,8.873,8.75,15.342,10.913c0.639-4.95,1.24-9.605,1.881-14.576
			c1.711,0.35,3.244,0.662,4.678,0.955c0,5.036,0,9.828,0,14.811c7.195,0.005,13.506-1.697,19.328-6.209
			c-2.781-5.536-5.492-10.935-8.252-16.428c1.77-1.074,3.127-1.898,4.59-2.787c2.908,4.87,5.699,9.545,8.938,14.969
			c2.523-3.824,4.684-7.108,6.855-10.383c1.313-1.98,1.109-3.479-0.889-5.064c-3.369-2.674-6.496-5.654-9.857-8.625
			c1.234-1.16,2.127-1.999,3.074-2.889c3.75,2.172,7.371,4.27,11.965,6.93c0.744-6.69,1.402-12.59,2.111-18.959
			c-4.572,0.341-8.145,0.607-11.637,0.869c-2.133-5.399-2.113-5.392,3.248-6.191c2.262-0.337,4.498-0.858,7.516-1.446
			c-2.541-5.989-4.826-11.372-7.404-17.444c-3.895,4.582-7.018,8.255-10.32,12.14c-1.42-1.188-2.615-2.187-3.879-3.244
			c2.883-4.878,5.6-9.474,8.396-14.208c-6.152-5.218-12.875-7.619-20.961-6.996C153.772-1363.437,155.157-1357.892,156.657-1351.89z
			"/>
		<path fill-rule="evenodd" clip-rule="evenodd" d="M196.276-1108.044c0.564-19.596,6.719-36.795,22.328-49.467
			c18.477-15,45.668-11.895,62.295,6.734c23.385,26.199,20.5,69.688-6.145,92.619c-19.363,16.666-48.217,13.008-64.441-8.117
			C199.887-1079.851,196.85-1093.226,196.276-1108.044z M246.075-1123.001c-2.314-6.02-4.563-11.867-6.84-17.789
			c-8.301,3.08-13.84,8.602-18.48,15.531c3.947,4.473,7.814,8.855,11.816,13.393c-1.385,1.621-2.635,3.082-4.16,4.867
			c-3.969-3.869-7.588-7.396-11.395-11.107c-3.014,7.336-5.037,14.838-3.885,22.961c4.328,0.414,8.375,0.803,12.211,1.17
			c0,2.141,0,3.941,0,5.945c-4.023-0.182-7.721-0.348-12.35-0.559c1.701,5.227,3.236,9.941,4.955,15.219
			c3.902-3.439,7.139-6.291,10.418-9.18c1.477,1.217,2.672,2.203,3.967,3.271c-3.703,3.996-6.914,7.459-10.223,11.027
			c3.809,5.404,8.857,8.76,15.313,10.951c0.641-4.959,1.24-9.613,1.883-14.586c1.709,0.35,3.244,0.662,4.678,0.955
			c0,5.037,0,9.828,0,14.885c7.16-0.174,13.531-1.684,19.305-6.328c-2.76-5.492-5.469-10.889-8.229-16.383
			c1.77-1.072,3.125-1.896,4.59-2.787c2.908,4.871,5.699,9.545,8.938,14.969c2.523-3.822,4.682-7.107,6.854-10.383
			c1.313-1.979,1.111-3.477-0.887-5.063c-3.369-2.676-6.496-5.656-9.859-8.625c1.236-1.16,2.129-2,3.076-2.889
			c3.75,2.172,7.371,4.27,11.963,6.93c0.746-6.691,1.404-12.592,2.113-18.961c-4.572,0.342-8.145,0.609-11.637,0.869
			c-2.135-5.398-2.113-5.391,3.246-6.189c2.264-0.338,4.5-0.859,7.518-1.447c-2.543-5.988-4.826-11.371-7.404-17.445
			c-3.896,4.584-7.018,8.256-10.32,12.141c-1.42-1.188-2.615-2.188-3.879-3.244c2.883-4.877,5.598-9.473,8.396-14.207
			c-6.154-5.219-12.875-7.621-20.949-6.998c1.49,6.023,2.885,11.664,4.326,17.488
			C249.317-1124.022,247.807-1123.546,246.075-1123.001z"/>
		<path fill-rule="evenodd" clip-rule="evenodd" d="M328.266-1350.014c3.553,0,6.775,0.376,9.793-0.243
			c0.84-0.172,1.074-3.292,1.75-5.624c-4.066,0-7.715,0-11.482,0c0.311-3.086,0.572-5.66,0.838-8.302c3.512,0,6.828,0,10.572,0
			c0.361-2.338,0.75-4.836,1.221-7.89c-3.861,0-7.396,0-11.039,0c0-2.927,0-5.339,0-8.104c3.613,0.209,6.938,0.402,10.57,0.613
			c0.457-2.158,0.908-4.296,1.439-6.805c-3.965-0.282-7.609-0.543-11.643-0.831c0.229-4.479,0.434-8.513,0.656-12.866
			c16.008,1.754,31.729,0.867,46.752,5.846c11.752,3.893,20.197,11.131,23.641,23.406c0.328,1.166,0.518,2.371,0.836,3.852
			c-3.695,1.066-7.102,2.051-10.818,3.125c-0.605-2.799-1.008-5.23-1.666-7.591c-2.025-7.276-6.363-12.495-13.977-14.085
			c-6.414-1.339-12.938-2.148-19.766-3.249c-1.941,16.754-3.789,32.683-5.695,49.12c12.328-0.623,24.346-1.229,36.988-1.867
			c-2.932,6.594-5.617,12.947-8.674,19.116c-0.369,0.745-2.814,0.911-4.16,0.649c-7.943-1.547-15.844-3.303-23.762-4.979
			c-0.701-0.148-1.422-0.221-2.416-0.373c-2.191,16.088-4.355,31.97-6.672,48.974c8.994,0,17.564,0.05,26.131-0.074
			c0.879-0.013,1.99-0.878,2.57-1.661c2.447-3.309,4.584-6.857,7.162-10.054c0.934-1.157,2.742-2.105,4.227-2.225
			c3.838-0.31,7.719-0.104,12.123-0.104c0,7,0,14.549,0,22.313c-23.059-1.354-46.381-2.721-69.799-4.096
			C325.409-1299.495,326.823-1324.491,328.266-1350.014z"/>
		<path fill-rule="evenodd" clip-rule="evenodd" d="M213.741-1391.532c9.529-4.335,18.766-8.535,28.547-12.984
			c7.787,31.891,15.471,63.354,23.305,95.435c0.768-1.202,1.285-1.844,1.623-2.569c9.242-19.878,18.615-39.697,27.582-59.7
			c2.105-4.7,3.49-9.948,4.037-15.069c0.799-7.492-2.977-12.805-8.113-13.072c-6.912-0.362-12.807,5.082-13.24,12.424
			c-0.109,1.828,0.271,3.703,0.576,5.531c0.463,2.777,1.969,4.793,4.982,4.436c1.447-0.172,3.941-1.473,3.92-2.201
			c-0.064-2.137-1.152-4.242-2.141-7.294c1.098-0.271,3.611-1.731,5.342-1.085c1.682,0.627,3.285,3.277,3.652,5.273
			c0.957,5.223-1.09,8.675-5.451,10.717c-5.438,2.547-11.816,1.551-15.977-2.492c-6.686-6.498-6.623-18.604,0.299-24.892
			c6.256-5.685,13.701-7.745,21.865-5.512c7.738,2.118,11.326,8.179,12.807,15.604c1.865,9.339-0.721,18.184-4.322,26.512
			c-4.941,11.424-10.436,22.645-16.322,33.615c-9.318,17.364-17.941,35.007-24.416,53.648c-0.311,0.895-0.668,1.771-1.238,3.284
			C245.176-1312.071,229.52-1351.644,213.741-1391.532z M231.657-1382.687c4.344,11.684,7.035,23.271,7.891,35.257
			c0.162,2.265,1.037,3.721,3.873,3.134c-0.029-13.366-1.424-26.41-4.729-39.51C236.311-1383.427,234.254-1383.1,231.657-1382.687z"
			/>
		<path fill-rule="evenodd" clip-rule="evenodd" d="M15.993-1386.823c-3.777-0.502-7.311-0.971-10.926-1.451
			c0-3.81,0-7.377,0-11.014c13.863,0.975,27.527,1.934,41.732,2.933c-6.975,36.472-13.92,72.794-20.893,109.261
			c13.188,0.755,26.086,1.635,39,2.139c3.42,0.134,6.959-0.592,10.311-1.447c8.305-2.117,11.695-8.134,9.605-16.52
			c-0.443-1.785-0.979-3.549-1.5-5.421c1.672-0.932,3.164-1.765,4.85-2.704c3.506,5.599,5.789,11.537,5.979,17.947
			c0.168,5.684-2.957,9.867-7.898,12.687c-6.686,3.815-14.119,4.89-21.553,5.392c-15.051,1.016-30.135,1.536-45.197,2.389
			c-3.678,0.207-7.33,0.908-11.301,1.422c1.074-15.368,2.131-30.51,3.189-45.65c0.303-4.354,0.566-8.709,0.943-13.057
			c0.166-1.918-0.479-2.723-2.467-2.742c-2.346-0.021-4.688-0.328-7.172-0.521c0-4.136,0-7.955,0-12.258c3.527,0,6.83,0,10.643,0
			c0.301-4.871,0.574-9.293,0.865-13.99c-3.539-0.396-6.842-0.766-10.719-1.2c0.27-3.825,0.541-7.696,0.824-11.747
			c2.816,0.139,5.408,0.133,7.965,0.432c2.266,0.266,3.148-0.402,3.154-2.781C15.438-1378.573,15.768-1382.419,15.993-1386.823z"/>
		<path fill-rule="evenodd" clip-rule="evenodd" d="M131.854-1152.876c-7.762-0.709-14.877-0.971-21.857-2.084
			c-11.412-1.82-17.607-9.459-18.041-20.9c-0.131-3.43,2.182-3.244,4.082-3.854c0.271,0.195,0.434,0.248,0.467,0.346
			c4.098,11.828,8.846,15.846,21.391,15.23c13.523-0.664,26.984-2.617,40.467-4.066c10.26-1.104,20.461-2.701,30.826-0.475
			c3.803,0.816,4.977,2.387,4.148,6.002c-0.496,2.172-0.705,4.408-1.094,6.939c-14.111-2.232-28.154-2.301-42.623,1.475
			c2.301,36.027,4.598,72.029,6.932,108.588c-10.906-1.465-21.557-2.896-32.789-4.404
			C126.465-1084.417,129.165-1118.716,131.854-1152.876z M140.417-1106.063c-3.615-0.016-6.943,3.297-7.006,6.973
			c-0.061,3.664,3.189,6.957,6.906,6.998c3.691,0.041,6.957-3.176,7.006-6.902C147.372-1102.526,143.93-1106.05,140.417-1106.063z
			 M140.235-1115.347c3.455,0.078,5.617-2.012,5.635-5.453c0.02-3.266-2.004-5.402-5.227-5.52c-3.547-0.129-5.637,1.797-5.738,5.285
			C134.801-1117.476,136.721-1115.427,140.235-1115.347z M145.868-1075.878c-0.08-3.348-2.436-5.566-5.752-5.412
			c-3.295,0.15-5.238,2.215-5.211,5.529c0.029,3.457,2.203,5.52,5.697,5.4C143.821-1070.47,145.944-1072.694,145.868-1075.878z"/>
		<path fill-rule="evenodd" clip-rule="evenodd" d="M61.049-1331.347c4.922,0.08,8.775,3.98,8.748,8.856
			c-0.027,5.09-3.961,8.884-9.121,8.801c-5.221-0.085-8.838-3.899-8.709-9.183C52.084-1327.694,56.086-1331.427,61.049-1331.347z"/>
		<path fill-rule="evenodd" clip-rule="evenodd" d="M374.809-1352.464c-5.781-1.43-11.049-2.734-16.666-4.125
			c1.781-3.701,3.334-7.051,5.02-10.334c0.357-0.7,1.107-1.479,1.824-1.668c3.818-1.012,7.686-1.849,11.973-2.848
			C376.235-1365.042,375.557-1359.06,374.809-1352.464z"/>
	</g>
	<path fill-rule="evenodd" clip-rule="evenodd" d="M202.245-885.091c-0.34,19.012-6.09,34.953-19.018,47.881
		c-17.844,17.844-45.129,17.635-62.992-0.334c-22.57-22.705-24.678-62.973-4.598-87.85c19.732-24.445,54.221-23.674,73.42,1.533
		C198.022-912.089,201.965-898.751,202.245-885.091z M156.657-900.89c-1.852,0.586-3.363,1.063-5.094,1.607
		c-2.316-6.02-4.564-11.869-6.842-17.789c-8.299,3.08-13.84,8.602-18.48,15.529c3.949,4.475,7.814,8.857,11.818,13.395
		c-1.385,1.621-2.635,3.082-4.162,4.867c-3.969-3.869-7.588-7.396-11.436-11.146c-2.906,7.387-5.021,14.871-3.838,23
		c4.324,0.414,8.369,0.803,12.207,1.17c0,2.141,0,3.941,0,5.945c-4.025-0.182-7.723-0.35-12.352-0.559
		c1.701,5.227,3.236,9.941,4.955,15.219c3.902-3.439,7.141-6.291,10.416-9.18c1.479,1.219,2.676,2.203,3.971,3.27
		c-3.705,3.998-6.916,7.461-10.252,11.059c3.865,5.336,8.873,8.75,15.342,10.912c0.639-4.949,1.24-9.604,1.881-14.576
		c1.711,0.35,3.244,0.662,4.678,0.955c0,5.037,0,9.828,0,14.811c7.195,0.006,13.506-1.697,19.328-6.207
		c-2.781-5.537-5.492-10.936-8.252-16.43c1.77-1.074,3.127-1.898,4.59-2.787c2.908,4.871,5.699,9.545,8.938,14.969
		c2.523-3.824,4.684-7.107,6.855-10.383c1.313-1.979,1.109-3.477-0.889-5.063c-3.369-2.676-6.496-5.656-9.857-8.627
		c1.234-1.158,2.127-1.998,3.074-2.887c3.75,2.172,7.371,4.268,11.965,6.928c0.744-6.689,1.402-12.59,2.111-18.959
		c-4.572,0.342-8.145,0.607-11.637,0.869c-2.133-5.398-2.113-5.391,3.248-6.189c2.262-0.338,4.498-0.859,7.516-1.447
		c-2.541-5.99-4.826-11.371-7.404-17.445c-3.895,4.582-7.018,8.256-10.32,12.141c-1.42-1.188-2.615-2.188-3.879-3.244
		c2.883-4.877,5.6-9.473,8.396-14.207c-6.152-5.219-12.875-7.621-20.961-6.998C153.772-912.437,155.157-906.892,156.657-900.89z"/>
	<path fill-rule="evenodd" clip-rule="evenodd" d="M328.266-899.013c3.553,0,6.775,0.375,9.793-0.244
		c0.84-0.172,1.074-3.291,1.75-5.623c-4.066,0-7.715,0-11.482,0c0.311-3.086,0.572-5.66,0.838-8.303c3.512,0,6.828,0,10.572,0
		c0.361-2.336,0.75-4.836,1.221-7.889c-3.861,0-7.396,0-11.039,0c0-2.928,0-5.34,0-8.105c3.613,0.209,6.938,0.402,10.57,0.613
		c0.457-2.156,0.908-4.295,1.439-6.803c-3.965-0.283-7.609-0.545-11.643-0.832c0.229-4.479,0.434-8.514,0.656-12.865
		c16.008,1.752,31.729,0.867,46.752,5.844c11.752,3.893,20.197,11.131,23.641,23.408c0.328,1.166,0.518,2.369,0.836,3.85
		c-3.695,1.068-7.102,2.051-10.818,3.125c-0.605-2.799-1.008-5.23-1.666-7.59c-2.025-7.277-6.363-12.496-13.977-14.086
		c-6.414-1.338-12.938-2.148-19.766-3.248c-1.941,16.754-3.789,32.684-5.695,49.119c12.328-0.621,24.346-1.229,36.988-1.867
		c-2.932,6.596-5.617,12.947-8.674,19.117c-0.369,0.746-2.814,0.91-4.16,0.648c-7.943-1.547-15.844-3.303-23.762-4.977
		c-0.701-0.148-1.422-0.223-2.416-0.375c-2.191,16.088-4.355,31.971-6.672,48.975c8.994,0,17.564,0.049,26.131-0.074
		c0.879-0.014,1.99-0.879,2.57-1.662c2.447-3.309,4.584-6.857,7.162-10.053c0.934-1.158,2.742-2.105,4.227-2.225
		c3.838-0.311,7.719-0.105,12.123-0.105c0,7,0,14.549,0,22.313c-23.059-1.354-46.381-2.721-69.799-4.094
		C325.409-848.495,326.823-873.489,328.266-899.013z"/>
	<path fill-rule="evenodd" clip-rule="evenodd" d="M213.741-940.53c9.529-4.336,18.766-8.537,28.547-12.986
		c7.787,31.893,15.471,63.354,23.305,95.436c0.768-1.203,1.285-1.844,1.623-2.568c9.242-19.879,18.615-39.699,27.582-59.701
		c2.105-4.699,3.49-9.949,4.037-15.07c0.799-7.49-2.977-12.803-8.113-13.072c-6.912-0.361-12.807,5.084-13.24,12.424
		c-0.109,1.828,0.271,3.703,0.576,5.531c0.463,2.777,1.969,4.795,4.982,4.436c1.447-0.172,3.941-1.473,3.92-2.201
		c-0.064-2.135-1.152-4.242-2.141-7.293c1.098-0.271,3.611-1.73,5.342-1.086c1.682,0.627,3.285,3.277,3.652,5.273
		c0.957,5.223-1.09,8.676-5.451,10.717c-5.438,2.547-11.816,1.551-15.977-2.49c-6.686-6.5-6.623-18.604,0.299-24.893
		c6.256-5.686,13.701-7.746,21.865-5.512c7.738,2.119,11.326,8.178,12.807,15.605c1.865,9.338-0.721,18.182-4.322,26.51
		c-4.941,11.424-10.436,22.646-16.322,33.615c-9.318,17.365-17.941,35.008-24.416,53.648c-0.311,0.895-0.668,1.773-1.238,3.285
		C245.176-861.069,229.52-900.642,213.741-940.53z M231.657-931.687c4.344,11.684,7.035,23.271,7.891,35.258
		c0.162,2.264,1.037,3.721,3.873,3.133c-0.029-13.365-1.424-26.408-4.729-39.51C236.311-932.427,234.254-932.099,231.657-931.687z"
		/>
	<path fill-rule="evenodd" clip-rule="evenodd" d="M15.993-935.823c-3.777-0.502-7.311-0.971-10.926-1.451c0-3.809,0-7.377,0-11.014
		c13.863,0.975,27.527,1.936,41.732,2.934c-6.975,36.473-13.92,72.793-20.893,109.26c13.188,0.756,26.086,1.637,39,2.141
		c3.42,0.133,6.959-0.594,10.311-1.447c8.305-2.117,11.695-8.135,9.605-16.521c-0.443-1.785-0.979-3.547-1.5-5.42
		c1.672-0.932,3.164-1.766,4.85-2.705c3.506,5.6,5.789,11.537,5.979,17.947c0.168,5.684-2.957,9.867-7.898,12.688
		c-6.686,3.816-14.119,4.889-21.553,5.391c-15.051,1.016-30.135,1.537-45.197,2.389c-3.678,0.209-7.33,0.908-11.301,1.422
		c1.074-15.367,2.131-30.51,3.189-45.65c0.303-4.352,0.566-8.709,0.943-13.055c0.166-1.918-0.479-2.725-2.467-2.742
		c-2.346-0.023-4.688-0.33-7.172-0.523c0-4.135,0-7.953,0-12.256c3.527,0,6.83,0,10.643,0c0.301-4.873,0.574-9.295,0.865-13.992
		c-3.539-0.395-6.842-0.766-10.719-1.199c0.27-3.826,0.541-7.697,0.824-11.748c2.816,0.139,5.408,0.133,7.965,0.434
		c2.266,0.264,3.148-0.404,3.154-2.781C15.438-927.573,15.768-931.417,15.993-935.823z"/>
	<path fill-rule="evenodd" clip-rule="evenodd" d="M61.049-880.345c4.922,0.078,8.775,3.98,8.748,8.855
		c-0.027,5.09-3.961,8.883-9.121,8.801c-5.221-0.084-8.838-3.9-8.709-9.184C52.084-876.692,56.086-880.425,61.049-880.345z"/>
	<path fill-rule="evenodd" clip-rule="evenodd" d="M374.809-901.462c-5.781-1.432-11.049-2.736-16.666-4.127
		c1.781-3.699,3.334-7.051,5.02-10.334c0.357-0.699,1.107-1.477,1.824-1.668c3.818-1.012,7.686-1.848,11.973-2.848
		C376.235-914.04,375.557-908.058,374.809-901.462z"/>
</g>
<g>
	<g>
		<path fill-rule="evenodd" clip-rule="evenodd" fill="#3F3F3F" d="M201.668,234.684c0.564-19.596,6.719-36.795,22.328-49.467
			c18.477-15,45.668-11.895,62.295,6.734c23.385,26.199,20.5,69.688-6.145,92.619c-19.363,16.666-48.217,13.008-64.441-8.117
			C205.279,262.877,202.242,249.502,201.668,234.684z M251.466,219.727c-2.314-6.02-4.563-11.867-6.84-17.789
			c-8.301,3.08-13.84,8.602-18.48,15.531c3.947,4.473,7.814,8.855,11.816,13.393c-1.385,1.621-2.635,3.082-4.16,4.867
			c-3.969-3.869-7.588-7.396-11.395-11.107c-3.014,7.336-5.037,14.838-3.885,22.961c4.328,0.414,8.375,0.803,12.211,1.17
			c0,2.141,0,3.941,0,5.945c-4.023-0.182-7.721-0.348-12.35-0.559c1.701,5.227,3.236,9.941,4.955,15.219
			c3.902-3.439,7.139-6.291,10.418-9.18c1.477,1.217,2.672,2.203,3.967,3.271c-3.703,3.996-6.914,7.459-10.223,11.027
			c3.809,5.404,8.857,8.76,15.313,10.951c0.641-4.959,1.24-9.613,1.883-14.586c1.709,0.35,3.244,0.662,4.678,0.955
			c0,5.037,0,9.828,0,14.885c7.16-0.174,13.531-1.684,19.305-6.328c-2.76-5.492-5.469-10.889-8.229-16.383
			c1.77-1.072,3.125-1.896,4.59-2.787c2.908,4.871,5.699,9.545,8.938,14.969c2.523-3.822,4.682-7.107,6.854-10.383
			c1.313-1.979,1.111-3.477-0.887-5.063c-3.369-2.676-6.496-5.656-9.859-8.625c1.236-1.16,2.129-2,3.076-2.889
			c3.75,2.172,7.371,4.27,11.963,6.93c0.746-6.691,1.404-12.592,2.113-18.961c-4.572,0.342-8.145,0.609-11.637,0.869
			c-2.135-5.398-2.113-5.391,3.246-6.189c2.264-0.338,4.5-0.859,7.518-1.447c-2.543-5.988-4.826-11.371-7.404-17.445
			c-3.896,4.584-7.018,8.256-10.32,12.141c-1.42-1.188-2.615-2.188-3.879-3.244c2.883-4.877,5.598-9.473,8.396-14.207
			c-6.154-5.219-12.875-7.621-20.949-6.998c1.49,6.023,2.885,11.664,4.326,17.488C254.708,218.705,253.199,219.182,251.466,219.727z
			"/>
		<path fill-rule="evenodd" clip-rule="evenodd" fill="#3F3F3F" d="M137.246,189.852c-7.762-0.709-14.877-0.971-21.857-2.084
			c-11.412-1.82-17.607-9.459-18.041-20.9c-0.131-3.43,2.182-3.244,4.082-3.854c0.271,0.195,0.434,0.248,0.467,0.346
			c4.098,11.828,8.846,15.846,21.391,15.23c13.523-0.664,26.984-2.617,40.467-4.066c10.26-1.104,20.461-2.701,30.826-0.475
			c3.803,0.816,4.977,2.387,4.148,6.002c-0.496,2.172-0.705,4.408-1.094,6.939c-14.111-2.232-28.154-2.301-42.623,1.475
			c2.301,36.027,4.598,72.029,6.932,108.588c-10.906-1.465-21.557-2.896-32.789-4.404
			C131.857,258.311,134.557,224.012,137.246,189.852z M145.809,236.664c-3.615-0.016-6.943,3.297-7.006,6.973
			c-0.061,3.664,3.189,6.957,6.906,6.998c3.691,0.041,6.957-3.176,7.006-6.902C152.764,240.201,149.322,236.678,145.809,236.664z
			 M145.627,227.381c3.455,0.078,5.617-2.012,5.635-5.453c0.02-3.266-2.004-5.402-5.227-5.52c-3.547-0.129-5.637,1.797-5.738,5.285
			C140.193,225.252,142.113,227.301,145.627,227.381z M151.26,266.85c-0.08-3.348-2.436-5.566-5.752-5.412
			c-3.295,0.15-5.238,2.215-5.211,5.529c0.029,3.457,2.203,5.52,5.697,5.4C149.213,272.258,151.336,270.033,151.26,266.85z"/>
	</g>
	<g>
		<path fill-rule="evenodd" clip-rule="evenodd" fill="#3F3F3F" d="M199.549,73.641c-0.34,19.01-6.09,34.952-19.018,47.88
			c-17.844,17.845-45.129,17.635-62.992-0.335c-22.57-22.704-24.678-62.972-4.598-87.848c19.732-24.446,54.221-23.676,73.42,1.531
			C195.326,46.641,199.27,59.979,199.549,73.641z M153.961,57.842c-1.852,0.584-3.363,1.061-5.094,1.607
			c-2.316-6.021-4.564-11.869-6.842-17.789c-8.299,3.08-13.84,8.601-18.48,15.529c3.949,4.474,7.814,8.856,11.818,13.395
			c-1.385,1.62-2.635,3.082-4.162,4.866c-3.969-3.868-7.588-7.396-11.436-11.146c-2.906,7.386-5.021,14.871-3.838,22.999
			c4.324,0.415,8.369,0.803,12.207,1.171c0,2.141,0,3.941,0,5.945c-4.025-0.184-7.723-0.35-12.352-0.559
			c1.701,5.226,3.236,9.94,4.955,15.219c3.902-3.439,7.141-6.293,10.416-9.18c1.479,1.218,2.676,2.203,3.971,3.27
			c-3.705,3.997-6.916,7.461-10.252,11.058c3.865,5.336,8.873,8.75,15.342,10.913c0.639-4.95,1.24-9.605,1.881-14.576
			c1.711,0.35,3.244,0.662,4.678,0.955c0,5.036,0,9.828,0,14.811c7.195,0.005,13.506-1.697,19.328-6.209
			c-2.781-5.536-5.492-10.935-8.252-16.428c1.77-1.074,3.127-1.898,4.59-2.787c2.908,4.87,5.699,9.545,8.938,14.969
			c2.523-3.824,4.684-7.108,6.855-10.383c1.313-1.98,1.109-3.479-0.889-5.064c-3.369-2.674-6.496-5.654-9.857-8.625
			c1.234-1.16,2.127-1.999,3.074-2.889c3.75,2.172,7.371,4.27,11.965,6.93c0.744-6.69,1.402-12.59,2.111-18.959
			c-4.572,0.341-8.145,0.607-11.637,0.869c-2.133-5.399-2.113-5.392,3.248-6.191c2.262-0.337,4.498-0.858,7.516-1.446
			c-2.541-5.989-4.826-11.372-7.404-17.444c-3.895,4.582-7.018,8.255-10.32,12.14c-1.42-1.188-2.615-2.187-3.879-3.244
			c2.883-4.878,5.6-9.474,8.396-14.208c-6.152-5.218-12.875-7.619-20.961-6.996C151.076,46.295,152.461,51.84,153.961,57.842z"/>
		<path fill-rule="evenodd" clip-rule="evenodd" fill="#3F3F3F" d="M325.57,59.718c3.553,0,6.775,0.376,9.793-0.243
			c0.84-0.172,1.074-3.292,1.75-5.624c-4.066,0-7.715,0-11.482,0c0.311-3.086,0.572-5.66,0.838-8.302c3.512,0,6.828,0,10.572,0
			c0.361-2.338,0.75-4.836,1.221-7.89c-3.861,0-7.396,0-11.039,0c0-2.927,0-5.339,0-8.104c3.613,0.209,6.938,0.402,10.57,0.613
			c0.457-2.158,0.908-4.296,1.439-6.805c-3.965-0.282-7.609-0.543-11.643-0.831c0.229-4.479,0.434-8.513,0.656-12.866
			c16.008,1.754,31.729,0.867,46.752,5.846c11.752,3.893,20.197,11.131,23.641,23.406c0.328,1.166,0.518,2.371,0.836,3.852
			c-3.695,1.066-7.102,2.051-10.818,3.125c-0.605-2.799-1.008-5.23-1.666-7.591c-2.025-7.276-6.363-12.495-13.977-14.085
			c-6.414-1.339-12.938-2.148-19.766-3.249c-1.941,16.754-3.789,32.683-5.695,49.12c12.328-0.623,24.346-1.229,36.988-1.867
			c-2.932,6.594-5.617,12.947-8.674,19.116c-0.369,0.745-2.814,0.911-4.16,0.649c-7.943-1.547-15.844-3.303-23.762-4.979
			c-0.701-0.148-1.422-0.221-2.416-0.373c-2.191,16.088-4.355,31.97-6.672,48.974c8.994,0,17.564,0.05,26.131-0.074
			c0.879-0.013,1.99-0.878,2.57-1.661c2.447-3.309,4.584-6.857,7.162-10.054c0.934-1.157,2.742-2.105,4.227-2.225
			c3.838-0.31,7.719-0.104,12.123-0.104c0,7,0,14.549,0,22.313c-23.059-1.354-46.381-2.721-69.799-4.096
			C322.712,110.236,324.126,85.24,325.57,59.718z"/>
		<path fill-rule="evenodd" clip-rule="evenodd" fill="#3F3F3F" d="M211.045,18.199c9.529-4.335,18.765-8.535,28.546-12.984
			c7.787,31.891,15.471,63.354,23.305,95.435c0.768-1.202,1.285-1.844,1.623-2.569c9.242-19.878,18.615-39.697,27.582-59.7
			c2.105-4.7,3.49-9.948,4.037-15.069c0.799-7.492-2.977-12.805-8.113-13.072c-6.912-0.362-12.807,5.082-13.24,12.424
			c-0.109,1.828,0.271,3.703,0.576,5.531c0.463,2.777,1.969,4.793,4.982,4.436c1.447-0.172,3.941-1.473,3.92-2.201
			c-0.064-2.137-1.152-4.242-2.141-7.294c1.098-0.271,3.611-1.731,5.342-1.085c1.682,0.627,3.285,3.277,3.652,5.273
			c0.957,5.223-1.09,8.675-5.451,10.717c-5.438,2.547-11.816,1.551-15.977-2.492c-6.686-6.498-6.623-18.604,0.299-24.892
			c6.256-5.685,13.701-7.745,21.865-5.512c7.738,2.118,11.326,8.179,12.807,15.604c1.865,9.339-0.721,18.184-4.322,26.512
			c-4.941,11.424-10.436,22.645-16.322,33.615c-9.318,17.364-17.941,35.007-24.416,53.648c-0.311,0.895-0.668,1.771-1.238,3.284
			C242.48,97.66,226.824,58.088,211.045,18.199z M228.96,27.045c4.344,11.684,7.035,23.271,7.891,35.257
			c0.162,2.265,1.037,3.721,3.873,3.134c-0.029-13.366-1.424-26.41-4.729-39.51C233.615,26.305,231.558,26.632,228.96,27.045z"/>
		<path fill-rule="evenodd" clip-rule="evenodd" fill="#3F3F3F" d="M13.297,22.908c-3.777-0.502-7.311-0.971-10.926-1.451
			c0-3.81,0-7.377,0-11.014c13.863,0.975,27.527,1.934,41.732,2.933c-6.975,36.472-13.92,72.794-20.893,109.261
			c13.188,0.755,26.086,1.635,39,2.139c3.42,0.134,6.959-0.592,10.311-1.447c8.305-2.117,11.695-8.134,9.605-16.52
			c-0.443-1.785-0.979-3.549-1.5-5.421c1.672-0.932,3.164-1.765,4.85-2.704c3.506,5.599,5.789,11.537,5.979,17.947
			c0.168,5.684-2.957,9.867-7.898,12.687c-6.686,3.815-14.119,4.89-21.553,5.392c-15.051,1.016-30.135,1.536-45.197,2.389
			c-3.678,0.207-7.33,0.908-11.301,1.422c1.074-15.368,2.131-30.51,3.189-45.65c0.303-4.354,0.566-8.709,0.943-13.057
			c0.166-1.918-0.479-2.723-2.467-2.742C4.826,77.049,2.484,76.742,0,76.549c0-4.136,0-7.955,0-12.258c3.527,0,6.83,0,10.643,0
			c0.301-4.871,0.574-9.293,0.865-13.99c-3.539-0.396-6.842-0.766-10.719-1.2c0.27-3.825,0.541-7.696,0.824-11.747
			c2.816,0.139,5.408,0.133,7.965,0.432c2.266,0.266,3.148-0.402,3.154-2.781C12.742,31.158,13.072,27.313,13.297,22.908z"/>
		<path fill-rule="evenodd" clip-rule="evenodd" fill="#3F3F3F" d="M58.354,78.385c4.922,0.08,8.775,3.98,8.748,8.856
			c-0.027,5.09-3.961,8.884-9.121,8.801c-5.221-0.085-8.838-3.899-8.709-9.183C49.389,82.037,53.391,78.305,58.354,78.385z"/>
		<path fill-rule="evenodd" clip-rule="evenodd" fill="#3F3F3F" d="M372.113,57.268c-5.781-1.43-11.049-2.734-16.666-4.125
			c1.781-3.701,3.334-7.051,5.02-10.334c0.357-0.7,1.107-1.479,1.824-1.668c3.818-1.012,7.686-1.849,11.973-2.848
			C373.539,44.689,372.861,50.672,372.113,57.268z"/>
	</g>
	<g>
		<path fill-rule="evenodd" clip-rule="evenodd" fill="#3F3F3F" d="M199.549,389.641c-0.34,19.012-6.09,34.953-19.018,47.881
			c-17.844,17.844-45.129,17.635-62.992-0.334c-22.57-22.705-24.678-62.973-4.598-87.85c19.732-24.445,54.221-23.674,73.42,1.533
			C195.326,362.643,199.27,375.98,199.549,389.641z M153.961,373.842c-1.852,0.586-3.363,1.063-5.094,1.607
			c-2.316-6.02-4.564-11.869-6.842-17.789c-8.299,3.08-13.84,8.602-18.48,15.529c3.949,4.475,7.814,8.857,11.818,13.395
			c-1.385,1.621-2.635,3.082-4.162,4.867c-3.969-3.869-7.588-7.396-11.436-11.146c-2.906,7.387-5.021,14.871-3.838,23
			c4.324,0.414,8.369,0.803,12.207,1.17c0,2.141,0,3.941,0,5.945c-4.025-0.182-7.723-0.35-12.352-0.559
			c1.701,5.227,3.236,9.941,4.955,15.219c3.902-3.439,7.141-6.291,10.416-9.18c1.479,1.219,2.676,2.203,3.971,3.27
			c-3.705,3.998-6.916,7.461-10.252,11.059c3.865,5.336,8.873,8.75,15.342,10.912c0.639-4.949,1.24-9.604,1.881-14.576
			c1.711,0.35,3.244,0.662,4.678,0.955c0,5.037,0,9.828,0,14.811c7.195,0.006,13.506-1.697,19.328-6.207
			c-2.781-5.537-5.492-10.936-8.252-16.43c1.77-1.074,3.127-1.898,4.59-2.787c2.908,4.871,5.699,9.545,8.938,14.969
			c2.523-3.824,4.684-7.107,6.855-10.383c1.313-1.979,1.109-3.477-0.889-5.063c-3.369-2.676-6.496-5.656-9.857-8.627
			c1.234-1.158,2.127-1.998,3.074-2.887c3.75,2.172,7.371,4.268,11.965,6.928c0.744-6.689,1.402-12.59,2.111-18.959
			c-4.572,0.342-8.145,0.607-11.637,0.869c-2.133-5.398-2.113-5.391,3.248-6.189c2.262-0.338,4.498-0.859,7.516-1.447
			c-2.541-5.99-4.826-11.371-7.404-17.445c-3.895,4.582-7.018,8.256-10.32,12.141c-1.42-1.188-2.615-2.188-3.879-3.244
			c2.883-4.877,5.6-9.473,8.396-14.207c-6.152-5.219-12.875-7.621-20.961-6.998C151.076,362.295,152.461,367.84,153.961,373.842z"/>
		<path fill-rule="evenodd" clip-rule="evenodd" fill="#3F3F3F" d="M325.57,375.719c3.553,0,6.775,0.375,9.793-0.244
			c0.84-0.172,1.074-3.291,1.75-5.623c-4.066,0-7.715,0-11.482,0c0.311-3.086,0.572-5.66,0.838-8.303c3.512,0,6.828,0,10.572,0
			c0.361-2.336,0.75-4.836,1.221-7.889c-3.861,0-7.396,0-11.039,0c0-2.928,0-5.34,0-8.105c3.613,0.209,6.938,0.402,10.57,0.613
			c0.457-2.156,0.908-4.295,1.439-6.803c-3.965-0.283-7.609-0.545-11.643-0.832c0.229-4.479,0.434-8.514,0.656-12.865
			c16.008,1.752,31.729,0.867,46.752,5.844c11.752,3.893,20.197,11.131,23.641,23.408c0.328,1.166,0.518,2.369,0.836,3.85
			c-3.695,1.068-7.102,2.051-10.818,3.125c-0.605-2.799-1.008-5.23-1.666-7.59c-2.025-7.277-6.363-12.496-13.977-14.086
			c-6.414-1.338-12.938-2.148-19.766-3.248c-1.941,16.754-3.789,32.684-5.695,49.119c12.328-0.621,24.346-1.229,36.988-1.867
			c-2.932,6.596-5.617,12.947-8.674,19.117c-0.369,0.746-2.814,0.91-4.16,0.648c-7.943-1.547-15.844-3.303-23.762-4.977
			c-0.701-0.148-1.422-0.223-2.416-0.375c-2.191,16.088-4.355,31.971-6.672,48.975c8.994,0,17.564,0.049,26.131-0.074
			c0.879-0.014,1.99-0.879,2.57-1.662c2.447-3.309,4.584-6.857,7.162-10.053c0.934-1.158,2.742-2.105,4.227-2.225
			c3.838-0.311,7.719-0.105,12.123-0.105c0,7,0,14.549,0,22.313c-23.059-1.354-46.381-2.721-69.799-4.094
			C322.712,426.236,324.126,401.242,325.57,375.719z"/>
		<path fill-rule="evenodd" clip-rule="evenodd" fill="#3F3F3F" d="M211.045,334.201c9.529-4.336,18.765-8.537,28.546-12.986
			c7.787,31.893,15.471,63.354,23.305,95.436c0.768-1.203,1.285-1.844,1.623-2.568c9.242-19.879,18.615-39.699,27.582-59.701
			c2.105-4.699,3.49-9.949,4.037-15.07c0.799-7.49-2.977-12.803-8.113-13.072c-6.912-0.361-12.807,5.084-13.24,12.424
			c-0.109,1.828,0.271,3.703,0.576,5.531c0.463,2.777,1.969,4.795,4.982,4.436c1.447-0.172,3.941-1.473,3.92-2.201
			c-0.064-2.135-1.152-4.242-2.141-7.293c1.098-0.271,3.611-1.73,5.342-1.086c1.682,0.627,3.285,3.277,3.652,5.273
			c0.957,5.223-1.09,8.676-5.451,10.717c-5.438,2.547-11.816,1.551-15.977-2.49c-6.686-6.5-6.623-18.604,0.299-24.893
			c6.256-5.686,13.701-7.746,21.865-5.512c7.738,2.119,11.326,8.178,12.807,15.605c1.865,9.338-0.721,18.182-4.322,26.51
			c-4.941,11.424-10.436,22.646-16.322,33.615c-9.318,17.365-17.941,35.008-24.416,53.648c-0.311,0.895-0.668,1.773-1.238,3.285
			C242.48,413.662,226.824,374.09,211.045,334.201z M228.96,343.045c4.344,11.684,7.035,23.271,7.891,35.258
			c0.162,2.264,1.037,3.721,3.873,3.133c-0.029-13.365-1.424-26.408-4.729-39.51C233.615,342.305,231.558,342.633,228.96,343.045z"
			/>
		<path fill-rule="evenodd" clip-rule="evenodd" fill="#3F3F3F" d="M13.297,338.908c-3.777-0.502-7.311-0.971-10.926-1.451
			c0-3.809,0-7.377,0-11.014c13.863,0.975,27.527,1.936,41.732,2.934c-6.975,36.473-13.92,72.793-20.893,109.26
			c13.188,0.756,26.086,1.637,39,2.141c3.42,0.133,6.959-0.594,10.311-1.447c8.305-2.117,11.695-8.135,9.605-16.521
			c-0.443-1.785-0.979-3.547-1.5-5.42c1.672-0.932,3.164-1.766,4.85-2.705c3.506,5.6,5.789,11.537,5.979,17.947
			c0.168,5.684-2.957,9.867-7.898,12.688c-6.686,3.816-14.119,4.889-21.553,5.391c-15.051,1.016-30.135,1.537-45.197,2.389
			c-3.678,0.209-7.33,0.908-11.301,1.422c1.074-15.367,2.131-30.51,3.189-45.65c0.303-4.352,0.566-8.709,0.943-13.055
			c0.166-1.918-0.479-2.725-2.467-2.742c-2.346-0.023-4.688-0.33-7.172-0.523c0-4.135,0-7.953,0-12.256c3.527,0,6.83,0,10.643,0
			c0.301-4.873,0.574-9.295,0.865-13.992c-3.539-0.395-6.842-0.766-10.719-1.199c0.27-3.826,0.541-7.697,0.824-11.748
			c2.816,0.139,5.408,0.133,7.965,0.434c2.266,0.264,3.148-0.404,3.154-2.781C12.742,347.158,13.072,343.314,13.297,338.908z"/>
		<path fill-rule="evenodd" clip-rule="evenodd" fill="#3F3F3F" d="M58.354,394.387c4.922,0.078,8.775,3.98,8.748,8.855
			c-0.027,5.09-3.961,8.883-9.121,8.801c-5.221-0.084-8.838-3.9-8.709-9.184C49.389,398.039,53.391,394.307,58.354,394.387z"/>
		<path fill-rule="evenodd" clip-rule="evenodd" fill="#3F3F3F" d="M372.113,373.27c-5.781-1.432-11.049-2.736-16.666-4.127
			c1.781-3.699,3.334-7.051,5.02-10.334c0.357-0.699,1.107-1.477,1.824-1.668c3.818-1.012,7.686-1.848,11.973-2.848
			C373.539,360.691,372.861,366.674,372.113,373.27z"/>
	</g>
</g>
<g>
	<path fill-rule="evenodd" clip-rule="evenodd" d="M1298.245-1336.09c-0.34,19.01-6.09,34.951-19.018,47.879
		c-17.844,17.844-45.129,17.635-62.992-0.334c-22.57-22.705-24.678-62.973-4.598-87.848c19.732-24.447,54.221-23.676,73.42,1.531
		C1294.022-1363.09,1297.965-1349.752,1298.245-1336.09z M1252.657-1351.891c-1.852,0.586-3.363,1.063-5.094,1.607
		c-2.316-6.02-4.564-11.867-6.842-17.787c-8.299,3.078-13.84,8.6-18.48,15.529c3.949,4.473,7.814,8.855,11.818,13.395
		c-1.385,1.619-2.635,3.08-4.162,4.865c-3.969-3.867-7.588-7.396-11.436-11.145c-2.906,7.385-5.021,14.871-3.838,22.998
		c4.324,0.414,8.369,0.803,12.207,1.17c0,2.143,0,3.943,0,5.945c-4.025-0.182-7.723-0.35-12.352-0.557
		c1.701,5.225,3.236,9.939,4.955,15.217c3.902-3.439,7.141-6.291,10.416-9.178c1.479,1.217,2.676,2.203,3.971,3.27
		c-3.705,3.996-6.916,7.459-10.252,11.057c3.865,5.336,8.873,8.75,15.342,10.912c0.639-4.949,1.24-9.604,1.881-14.574
		c1.711,0.348,3.244,0.662,4.678,0.955c0,5.035,0,9.826,0,14.811c7.195,0.004,13.506-1.699,19.328-6.209
		c-2.781-5.537-5.492-10.936-8.252-16.428c1.77-1.076,3.127-1.898,4.59-2.789c2.908,4.871,5.699,9.545,8.938,14.969
		c2.523-3.824,4.684-7.107,6.855-10.383c1.313-1.979,1.109-3.477-0.889-5.063c-3.369-2.674-6.496-5.654-9.857-8.625
		c1.234-1.16,2.127-2,3.074-2.889c3.75,2.172,7.371,4.27,11.965,6.928c0.744-6.689,1.402-12.59,2.111-18.959
		c-4.572,0.342-8.145,0.609-11.637,0.871c-2.133-5.4-2.113-5.393,3.248-6.191c2.262-0.338,4.498-0.859,7.516-1.447
		c-2.541-5.99-4.826-11.371-7.404-17.445c-3.895,4.584-7.018,8.256-10.32,12.141c-1.42-1.188-2.615-2.186-3.879-3.244
		c2.883-4.877,5.6-9.473,8.396-14.207c-6.152-5.219-12.875-7.619-20.961-6.996
		C1249.772-1363.436,1251.157-1357.891,1252.657-1351.891z"/>
	<path fill-rule="evenodd" clip-rule="evenodd" d="M1424.266-1350.014c3.553,0,6.775,0.375,9.793-0.244
		c0.84-0.172,1.074-3.291,1.75-5.623c-4.066,0-7.715,0-11.482,0c0.311-3.086,0.572-5.66,0.838-8.303c3.512,0,6.828,0,10.572,0
		c0.361-2.336,0.75-4.836,1.221-7.889c-3.861,0-7.396,0-11.039,0c0-2.926,0-5.338,0-8.105c3.613,0.211,6.938,0.402,10.57,0.613
		c0.457-2.156,0.908-4.295,1.439-6.803c-3.965-0.283-7.609-0.543-11.643-0.832c0.229-4.479,0.434-8.512,0.656-12.865
		c16.008,1.754,31.729,0.867,46.752,5.844c11.752,3.893,20.197,11.133,23.641,23.408c0.328,1.166,0.518,2.369,0.836,3.85
		c-3.695,1.068-7.102,2.053-10.818,3.125c-0.605-2.797-1.008-5.229-1.666-7.59c-2.025-7.277-6.363-12.496-13.977-14.084
		c-6.414-1.34-12.938-2.148-19.766-3.25c-1.941,16.754-3.789,32.684-5.695,49.121c12.328-0.623,24.346-1.23,36.988-1.869
		c-2.932,6.596-5.617,12.947-8.674,19.117c-0.369,0.746-2.814,0.912-4.16,0.648c-7.943-1.545-15.844-3.303-23.762-4.977
		c-0.701-0.148-1.422-0.223-2.416-0.373c-2.191,16.088-4.355,31.969-6.672,48.973c8.994,0,17.564,0.051,26.131-0.074
		c0.879-0.012,1.99-0.877,2.57-1.662c2.447-3.307,4.584-6.857,7.162-10.053c0.934-1.158,2.742-2.105,4.227-2.225
		c3.838-0.309,7.719-0.104,12.123-0.104c0,7,0,14.547,0,22.311c-23.059-1.352-46.381-2.719-69.799-4.094
		C1421.409-1299.496,1422.823-1324.49,1424.266-1350.014z"/>
	<path fill-rule="evenodd" clip-rule="evenodd" d="M1309.741-1391.531c9.529-4.336,18.766-8.535,28.547-12.984
		c7.787,31.891,15.471,63.352,23.305,95.434c0.768-1.203,1.285-1.844,1.623-2.568c9.242-19.879,18.615-39.699,27.582-59.701
		c2.105-4.699,3.49-9.947,4.037-15.068c0.799-7.492-2.977-12.805-8.113-13.074c-6.912-0.361-12.807,5.084-13.24,12.426
		c-0.109,1.826,0.271,3.703,0.576,5.531c0.463,2.775,1.969,4.793,4.982,4.436c1.447-0.174,3.941-1.473,3.92-2.201
		c-0.064-2.137-1.152-4.242-2.141-7.295c1.098-0.271,3.611-1.73,5.342-1.086c1.682,0.629,3.285,3.277,3.652,5.273
		c0.957,5.223-1.09,8.676-5.451,10.719c-5.438,2.545-11.816,1.551-15.977-2.492c-6.686-6.5-6.623-18.604,0.299-24.893
		c6.256-5.686,13.701-7.746,21.865-5.512c7.738,2.119,11.326,8.18,12.807,15.605c1.865,9.338-0.721,18.184-4.322,26.51
		c-4.941,11.424-10.436,22.646-16.322,33.615c-9.318,17.365-17.941,35.008-24.416,53.648c-0.311,0.895-0.668,1.773-1.238,3.285
		C1341.176-1312.07,1325.52-1351.643,1309.741-1391.531z M1327.657-1382.686c4.344,11.684,7.035,23.271,7.891,35.256
		c0.162,2.264,1.037,3.721,3.873,3.135c-0.029-13.367-1.424-26.41-4.729-39.512
		C1332.311-1383.426,1330.254-1383.1,1327.657-1382.686z"/>
	<path fill-rule="evenodd" clip-rule="evenodd" d="M1111.993-1386.822c-3.777-0.502-7.311-0.973-10.926-1.451
		c0-3.811,0-7.379,0-11.014c13.863,0.975,27.527,1.934,41.732,2.932c-6.975,36.473-13.92,72.795-20.893,109.26
		c13.188,0.756,26.086,1.637,39,2.141c3.42,0.133,6.959-0.594,10.311-1.447c8.305-2.117,11.695-8.135,9.605-16.52
		c-0.443-1.785-0.979-3.549-1.5-5.422c1.672-0.932,3.164-1.766,4.85-2.703c3.506,5.598,5.789,11.537,5.979,17.947
		c0.168,5.684-2.957,9.867-7.898,12.686c-6.686,3.816-14.119,4.891-21.553,5.393c-15.051,1.014-30.135,1.535-45.197,2.387
		c-3.678,0.209-7.33,0.91-11.301,1.424c1.074-15.369,2.131-30.51,3.189-45.65c0.303-4.354,0.566-8.711,0.943-13.057
		c0.166-1.918-0.479-2.723-2.467-2.742c-2.346-0.023-4.688-0.328-7.172-0.521c0-4.137,0-7.955,0-12.258c3.527,0,6.83,0,10.643,0
		c0.301-4.871,0.574-9.293,0.865-13.99c-3.539-0.396-6.842-0.768-10.719-1.201c0.27-3.826,0.541-7.697,0.824-11.748
		c2.816,0.141,5.408,0.135,7.965,0.434c2.266,0.264,3.148-0.404,3.154-2.781C1111.438-1378.574,1111.768-1382.418,1111.993-1386.822
		z"/>
	<g>
		<path fill-rule="evenodd" clip-rule="evenodd" d="M1692.074-1333.047c0.564-19.596,6.719-36.795,22.328-49.467
			c18.477-15,45.668-11.895,62.295,6.734c23.385,26.199,20.5,69.688-6.145,92.619c-19.363,16.666-48.217,13.008-64.441-8.117
			C1695.685-1304.854,1692.648-1318.229,1692.074-1333.047z M1741.873-1348.004c-2.314-6.02-4.563-11.867-6.84-17.789
			c-8.301,3.08-13.84,8.602-18.48,15.531c3.947,4.473,7.814,8.855,11.816,13.393c-1.385,1.621-2.635,3.082-4.16,4.867
			c-3.969-3.869-7.588-7.396-11.395-11.107c-3.014,7.336-5.037,14.838-3.885,22.961c4.328,0.414,8.375,0.803,12.211,1.17
			c0,2.141,0,3.941,0,5.945c-4.023-0.182-7.721-0.348-12.35-0.559c1.701,5.227,3.236,9.941,4.955,15.219
			c3.902-3.439,7.139-6.291,10.418-9.18c1.477,1.217,2.672,2.203,3.967,3.271c-3.703,3.996-6.914,7.459-10.223,11.027
			c3.809,5.404,8.857,8.76,15.313,10.951c0.641-4.959,1.24-9.613,1.883-14.586c1.709,0.35,3.244,0.662,4.678,0.955
			c0,5.037,0,9.828,0,14.885c7.16-0.174,13.531-1.684,19.305-6.328c-2.76-5.492-5.469-10.889-8.229-16.383
			c1.77-1.072,3.125-1.896,4.59-2.787c2.908,4.871,5.699,9.545,8.938,14.969c2.523-3.822,4.682-7.107,6.854-10.383
			c1.313-1.979,1.111-3.477-0.887-5.063c-3.369-2.676-6.496-5.656-9.859-8.625c1.236-1.16,2.129-2,3.076-2.889
			c3.75,2.172,7.371,4.27,11.963,6.93c0.746-6.691,1.404-12.592,2.113-18.961c-4.572,0.342-8.145,0.609-11.637,0.869
			c-2.135-5.398-2.113-5.391,3.246-6.189c2.264-0.338,4.5-0.859,7.518-1.447c-2.543-5.988-4.826-11.371-7.404-17.445
			c-3.896,4.584-7.018,8.256-10.32,12.141c-1.42-1.188-2.615-2.188-3.879-3.244c2.883-4.877,5.598-9.473,8.396-14.207
			c-6.154-5.219-12.875-7.621-20.949-6.998c1.49,6.023,2.885,11.664,4.326,17.488
			C1745.115-1349.025,1743.605-1348.549,1741.873-1348.004z"/>
		<path fill-rule="evenodd" clip-rule="evenodd" d="M1627.652-1377.879c-7.762-0.709-14.877-0.971-21.857-2.084
			c-11.412-1.82-17.607-9.459-18.041-20.9c-0.131-3.43,2.182-3.244,4.082-3.854c0.271,0.195,0.434,0.248,0.467,0.346
			c4.098,11.828,8.846,15.846,21.391,15.23c13.523-0.664,26.984-2.617,40.467-4.066c10.26-1.104,20.461-2.701,30.826-0.475
			c3.803,0.816,4.977,2.387,4.148,6.002c-0.496,2.172-0.705,4.408-1.094,6.939c-14.111-2.232-28.154-2.301-42.623,1.475
			c2.301,36.027,4.598,72.029,6.932,108.588c-10.906-1.465-21.557-2.896-32.789-4.404
			C1622.263-1309.42,1624.962-1343.719,1627.652-1377.879z M1636.214-1331.066c-3.615-0.016-6.943,3.297-7.006,6.973
			c-0.061,3.664,3.189,6.957,6.906,6.998c3.691,0.041,6.957-3.176,7.006-6.902
			C1643.169-1327.529,1639.728-1331.053,1636.214-1331.066z M1636.033-1340.35c3.455,0.078,5.617-2.012,5.635-5.453
			c0.02-3.266-2.004-5.402-5.227-5.52c-3.547-0.129-5.637,1.797-5.738,5.285C1630.599-1342.479,1632.519-1340.43,1636.033-1340.35z
			 M1641.666-1300.881c-0.08-3.348-2.436-5.566-5.752-5.412c-3.295,0.15-5.238,2.215-5.211,5.529c0.029,3.457,2.203,5.52,5.697,5.4
			C1639.619-1295.473,1641.742-1297.697,1641.666-1300.881z"/>
	</g>
	<path fill-rule="evenodd" clip-rule="evenodd" d="M1157.049-1331.346c4.922,0.08,8.775,3.98,8.748,8.855
		c-0.027,5.09-3.961,8.883-9.121,8.801c-5.221-0.084-8.838-3.9-8.709-9.184C1148.084-1327.693,1152.086-1331.426,1157.049-1331.346z
		"/>
	<path fill-rule="evenodd" clip-rule="evenodd" d="M1470.809-1352.463c-5.781-1.432-11.049-2.736-16.666-4.125
		c1.781-3.701,3.334-7.053,5.02-10.336c0.357-0.699,1.107-1.477,1.824-1.666c3.818-1.014,7.686-1.85,11.973-2.85
		C1472.235-1365.041,1471.557-1359.059,1470.809-1352.463z"/>
	<g>
		<path fill-rule="evenodd" clip-rule="evenodd" d="M2080.536-1337.088c-0.34,19.01-6.09,34.951-19.018,47.879
			c-17.844,17.844-45.129,17.635-62.992-0.334c-22.57-22.705-24.678-62.973-4.598-87.848c19.732-24.447,54.221-23.676,73.42,1.531
			C2076.313-1364.088,2080.256-1350.75,2080.536-1337.088z M2034.948-1352.889c-1.852,0.586-3.363,1.063-5.094,1.607
			c-2.316-6.02-4.564-11.867-6.842-17.787c-8.299,3.078-13.84,8.6-18.48,15.529c3.949,4.473,7.814,8.855,11.818,13.395
			c-1.385,1.619-2.635,3.08-4.162,4.865c-3.969-3.867-7.588-7.396-11.436-11.145c-2.906,7.385-5.021,14.871-3.838,22.998
			c4.324,0.414,8.369,0.803,12.207,1.17c0,2.143,0,3.943,0,5.945c-4.025-0.182-7.723-0.35-12.352-0.557
			c1.701,5.225,3.236,9.939,4.955,15.217c3.902-3.439,7.141-6.291,10.416-9.178c1.479,1.217,2.676,2.203,3.971,3.27
			c-3.705,3.996-6.916,7.459-10.252,11.057c3.865,5.336,8.873,8.75,15.342,10.912c0.639-4.949,1.24-9.604,1.881-14.574
			c1.711,0.348,3.244,0.662,4.678,0.955c0,5.035,0,9.826,0,14.811c7.195,0.004,13.506-1.699,19.328-6.209
			c-2.781-5.537-5.492-10.936-8.252-16.428c1.77-1.076,3.127-1.898,4.59-2.789c2.908,4.871,5.699,9.545,8.938,14.969
			c2.523-3.824,4.684-7.107,6.855-10.383c1.313-1.979,1.109-3.477-0.889-5.063c-3.369-2.674-6.496-5.654-9.857-8.625
			c1.234-1.16,2.127-2,3.074-2.889c3.75,2.172,7.371,4.27,11.965,6.928c0.744-6.689,1.402-12.59,2.111-18.959
			c-4.572,0.342-8.145,0.609-11.637,0.871c-2.133-5.4-2.113-5.393,3.248-6.191c2.262-0.338,4.498-0.859,7.516-1.447
			c-2.541-5.99-4.826-11.371-7.404-17.445c-3.895,4.584-7.018,8.256-10.32,12.141c-1.42-1.188-2.615-2.186-3.879-3.244
			c2.883-4.877,5.6-9.473,8.396-14.207c-6.152-5.219-12.875-7.619-20.961-6.996
			C2032.063-1364.434,2033.448-1358.889,2034.948-1352.889z"/>
		<path fill-rule="evenodd" clip-rule="evenodd" d="M2206.557-1351.012c3.553,0,6.775,0.375,9.793-0.244
			c0.84-0.172,1.074-3.291,1.75-5.623c-4.066,0-7.715,0-11.482,0c0.311-3.086,0.572-5.66,0.838-8.303c3.512,0,6.828,0,10.572,0
			c0.361-2.336,0.75-4.836,1.221-7.889c-3.861,0-7.396,0-11.039,0c0-2.926,0-5.338,0-8.105c3.613,0.211,6.938,0.402,10.57,0.613
			c0.457-2.156,0.908-4.295,1.439-6.803c-3.965-0.283-7.609-0.543-11.643-0.832c0.229-4.479,0.434-8.512,0.656-12.865
			c16.008,1.754,31.729,0.867,46.752,5.844c11.752,3.893,20.197,11.133,23.641,23.408c0.328,1.166,0.518,2.369,0.836,3.85
			c-3.695,1.068-7.102,2.053-10.818,3.125c-0.605-2.797-1.008-5.229-1.666-7.59c-2.025-7.277-6.363-12.496-13.977-14.084
			c-6.414-1.34-12.938-2.148-19.766-3.25c-1.941,16.754-3.789,32.684-5.695,49.121c12.328-0.623,24.346-1.23,36.988-1.869
			c-2.932,6.596-5.617,12.947-8.674,19.117c-0.369,0.746-2.814,0.912-4.16,0.648c-7.943-1.545-15.844-3.303-23.762-4.977
			c-0.701-0.148-1.422-0.223-2.416-0.373c-2.191,16.088-4.355,31.969-6.672,48.973c8.994,0,17.564,0.051,26.131-0.074
			c0.879-0.012,1.99-0.877,2.57-1.662c2.447-3.307,4.584-6.857,7.162-10.053c0.934-1.158,2.742-2.105,4.227-2.225
			c3.838-0.309,7.719-0.104,12.123-0.104c0,7,0,14.547,0,22.311c-23.059-1.352-46.381-2.719-69.799-4.094
			C2203.7-1300.494,2205.114-1325.488,2206.557-1351.012z"/>
		<path fill-rule="evenodd" clip-rule="evenodd" d="M2092.032-1392.529c9.529-4.336,18.766-8.535,28.547-12.984
			c7.787,31.891,15.471,63.352,23.305,95.434c0.768-1.203,1.285-1.844,1.623-2.568c9.242-19.879,18.615-39.699,27.582-59.701
			c2.105-4.699,3.49-9.947,4.037-15.068c0.799-7.492-2.977-12.805-8.113-13.074c-6.912-0.361-12.807,5.084-13.24,12.426
			c-0.109,1.826,0.271,3.703,0.576,5.531c0.463,2.775,1.969,4.793,4.982,4.436c1.447-0.174,3.941-1.473,3.92-2.201
			c-0.064-2.137-1.152-4.242-2.141-7.295c1.098-0.271,3.611-1.73,5.342-1.086c1.682,0.629,3.285,3.277,3.652,5.273
			c0.957,5.223-1.09,8.676-5.451,10.719c-5.438,2.545-11.816,1.551-15.977-2.492c-6.686-6.5-6.623-18.604,0.299-24.893
			c6.256-5.686,13.701-7.746,21.865-5.512c7.738,2.119,11.326,8.18,12.807,15.605c1.865,9.338-0.721,18.184-4.322,26.51
			c-4.941,11.424-10.436,22.646-16.322,33.615c-9.318,17.365-17.941,35.008-24.416,53.648c-0.311,0.895-0.668,1.773-1.238,3.285
			C2123.467-1313.068,2107.811-1352.641,2092.032-1392.529z M2109.948-1383.684c4.344,11.684,7.035,23.271,7.891,35.256
			c0.162,2.264,1.037,3.721,3.873,3.135c-0.029-13.367-1.424-26.41-4.729-39.512
			C2114.602-1384.424,2112.545-1384.098,2109.948-1383.684z"/>
		<path fill-rule="evenodd" clip-rule="evenodd" d="M1894.284-1387.82c-3.777-0.502-7.311-0.973-10.926-1.451
			c0-3.811,0-7.379,0-11.014c13.863,0.975,27.527,1.934,41.732,2.932c-6.975,36.473-13.92,72.795-20.893,109.26
			c13.188,0.756,26.086,1.637,39,2.141c3.42,0.133,6.959-0.594,10.311-1.447c8.305-2.117,11.695-8.135,9.605-16.52
			c-0.443-1.785-0.979-3.549-1.5-5.422c1.672-0.932,3.164-1.766,4.85-2.703c3.506,5.598,5.789,11.537,5.979,17.947
			c0.168,5.684-2.957,9.867-7.898,12.686c-6.686,3.816-14.119,4.891-21.553,5.393c-15.051,1.014-30.135,1.535-45.197,2.387
			c-3.678,0.209-7.33,0.91-11.301,1.424c1.074-15.369,2.131-30.51,3.189-45.65c0.303-4.354,0.566-8.711,0.943-13.057
			c0.166-1.918-0.479-2.723-2.467-2.742c-2.346-0.023-4.688-0.328-7.172-0.521c0-4.137,0-7.955,0-12.258c3.527,0,6.83,0,10.643,0
			c0.301-4.871,0.574-9.293,0.865-13.99c-3.539-0.396-6.842-0.768-10.719-1.201c0.27-3.826,0.541-7.697,0.824-11.748
			c2.816,0.141,5.408,0.135,7.965,0.434c2.266,0.264,3.148-0.404,3.154-2.781C1893.729-1379.572,1894.059-1383.416,1894.284-1387.82
			z"/>
		<path fill-rule="evenodd" clip-rule="evenodd" d="M1939.34-1332.344c4.922,0.08,8.775,3.98,8.748,8.855
			c-0.027,5.09-3.961,8.883-9.121,8.801c-5.221-0.084-8.838-3.9-8.709-9.184C1930.375-1328.691,1934.377-1332.424,1939.34-1332.344z
			"/>
		<path fill-rule="evenodd" clip-rule="evenodd" d="M2253.1-1353.461c-5.781-1.432-11.049-2.736-16.666-4.125
			c1.781-3.701,3.334-7.053,5.02-10.336c0.357-0.699,1.107-1.477,1.824-1.666c3.818-1.014,7.686-1.85,11.973-2.85
			C2254.526-1366.039,2253.848-1360.057,2253.1-1353.461z"/>
	</g>
</g>
<g>
	<path fill-rule="evenodd" clip-rule="evenodd" d="M1178.269-712.268c-0.34,19.01-6.09,34.951-19.018,47.879
		c-17.844,17.844-45.129,17.635-62.992-0.334c-22.57-22.705-24.678-62.973-4.598-87.848c19.732-24.447,54.221-23.676,73.42,1.531
		C1174.046-739.268,1177.99-725.93,1178.269-712.268z M1132.681-728.068c-1.852,0.586-3.363,1.063-5.094,1.607
		c-2.316-6.02-4.564-11.867-6.842-17.787c-8.299,3.078-13.84,8.6-18.48,15.529c3.949,4.473,7.814,8.855,11.818,13.395
		c-1.385,1.619-2.635,3.08-4.162,4.865c-3.969-3.867-7.588-7.396-11.436-11.145c-2.906,7.385-5.021,14.871-3.838,22.998
		c4.324,0.414,8.369,0.803,12.207,1.17c0,2.143,0,3.943,0,5.945c-4.025-0.182-7.723-0.35-12.352-0.557
		c1.701,5.225,3.236,9.939,4.955,15.217c3.902-3.439,7.141-6.291,10.416-9.178c1.479,1.217,2.676,2.203,3.971,3.27
		c-3.705,3.996-6.916,7.459-10.252,11.057c3.865,5.336,8.873,8.75,15.342,10.912c0.639-4.949,1.24-9.604,1.881-14.574
		c1.711,0.348,3.244,0.662,4.678,0.955c0,5.035,0,9.826,0,14.811c7.195,0.004,13.506-1.699,19.328-6.209
		c-2.781-5.537-5.492-10.936-8.252-16.428c1.77-1.076,3.127-1.898,4.59-2.789c2.908,4.871,5.699,9.545,8.938,14.969
		c2.523-3.824,4.684-7.107,6.855-10.383c1.313-1.979,1.109-3.477-0.889-5.063c-3.369-2.674-6.496-5.654-9.857-8.625
		c1.234-1.16,2.127-2,3.074-2.889c3.75,2.172,7.371,4.27,11.965,6.928c0.744-6.689,1.402-12.59,2.111-18.959
		c-4.572,0.342-8.145,0.609-11.637,0.871c-2.133-5.4-2.113-5.393,3.248-6.191c2.262-0.338,4.498-0.859,7.516-1.447
		c-2.541-5.99-4.826-11.371-7.404-17.445c-3.895,4.584-7.018,8.256-10.32,12.141c-1.42-1.188-2.615-2.186-3.879-3.244
		c2.883-4.877,5.6-9.473,8.396-14.207c-6.152-5.219-12.875-7.619-20.961-6.996C1129.796-739.613,1131.181-734.068,1132.681-728.068z
		"/>
	<path fill-rule="evenodd" clip-rule="evenodd" d="M1304.291-726.191c3.553,0,6.775,0.375,9.793-0.244
		c0.84-0.172,1.074-3.291,1.75-5.623c-4.066,0-7.715,0-11.482,0c0.311-3.086,0.572-5.66,0.838-8.303c3.512,0,6.828,0,10.572,0
		c0.361-2.336,0.75-4.836,1.221-7.889c-3.861,0-7.396,0-11.039,0c0-2.926,0-5.338,0-8.105c3.613,0.211,6.938,0.402,10.57,0.613
		c0.457-2.156,0.908-4.295,1.439-6.803c-3.965-0.283-7.609-0.543-11.643-0.832c0.229-4.479,0.434-8.512,0.656-12.865
		c16.008,1.754,31.729,0.867,46.752,5.844c11.752,3.893,20.197,11.133,23.641,23.408c0.328,1.166,0.518,2.369,0.836,3.85
		c-3.695,1.068-7.102,2.053-10.818,3.125c-0.605-2.797-1.008-5.229-1.666-7.59c-2.025-7.277-6.363-12.496-13.977-14.084
		c-6.414-1.34-12.938-2.148-19.766-3.25c-1.941,16.754-3.789,32.684-5.695,49.121c12.328-0.623,24.346-1.23,36.988-1.869
		c-2.932,6.596-5.617,12.947-8.674,19.117c-0.369,0.746-2.814,0.912-4.16,0.648c-7.943-1.545-15.844-3.303-23.762-4.977
		c-0.701-0.148-1.422-0.223-2.416-0.373c-2.191,16.088-4.355,31.969-6.672,48.973c8.994,0,17.564,0.051,26.131-0.074
		c0.879-0.012,1.99-0.877,2.57-1.662c2.447-3.307,4.584-6.857,7.162-10.053c0.934-1.158,2.742-2.105,4.227-2.225
		c3.838-0.309,7.719-0.104,12.123-0.104c0,7,0,14.547,0,22.311c-23.059-1.352-46.381-2.719-69.799-4.094
		C1301.433-675.674,1302.847-700.668,1304.291-726.191z"/>
	<path fill-rule="evenodd" clip-rule="evenodd" d="M1189.765-767.709c9.529-4.336,18.766-8.535,28.547-12.984
		c7.787,31.891,15.471,63.352,23.305,95.434c0.768-1.203,1.285-1.844,1.623-2.568c9.242-19.879,18.615-39.699,27.582-59.701
		c2.105-4.699,3.49-9.947,4.037-15.068c0.799-7.492-2.977-12.805-8.113-13.074c-6.912-0.361-12.807,5.084-13.24,12.426
		c-0.109,1.826,0.271,3.703,0.576,5.531c0.463,2.775,1.969,4.793,4.982,4.436c1.447-0.174,3.941-1.473,3.92-2.201
		c-0.064-2.137-1.152-4.242-2.141-7.295c1.098-0.271,3.611-1.73,5.342-1.086c1.682,0.629,3.285,3.277,3.652,5.273
		c0.957,5.223-1.09,8.676-5.451,10.719c-5.438,2.545-11.816,1.551-15.977-2.492c-6.686-6.5-6.623-18.604,0.299-24.893
		c6.256-5.686,13.701-7.746,21.865-5.512c7.738,2.119,11.326,8.18,12.807,15.605c1.865,9.338-0.721,18.184-4.322,26.51
		c-4.941,11.424-10.436,22.646-16.322,33.615c-9.318,17.365-17.941,35.008-24.416,53.648c-0.311,0.895-0.668,1.773-1.238,3.285
		C1221.201-688.248,1205.544-727.82,1189.765-767.709z M1207.681-758.863c4.344,11.684,7.035,23.271,7.891,35.256
		c0.162,2.264,1.037,3.721,3.873,3.135c-0.029-13.367-1.424-26.41-4.729-39.512C1212.335-759.604,1210.279-759.277,1207.681-758.863
		z"/>
	<path fill-rule="evenodd" clip-rule="evenodd" d="M992.017-763c-3.777-0.502-7.311-0.973-10.926-1.451c0-3.811,0-7.379,0-11.014
		c13.863,0.975,27.527,1.934,41.732,2.932c-6.975,36.473-13.92,72.795-20.893,109.26c13.188,0.756,26.086,1.637,39,2.141
		c3.42,0.133,6.959-0.594,10.311-1.447c8.305-2.117,11.695-8.135,9.605-16.52c-0.443-1.785-0.979-3.549-1.5-5.422
		c1.672-0.932,3.164-1.766,4.85-2.703c3.506,5.598,5.789,11.537,5.979,17.947c0.168,5.684-2.957,9.867-7.898,12.686
		c-6.686,3.816-14.119,4.891-21.553,5.393c-15.051,1.014-30.135,1.535-45.197,2.387c-3.678,0.209-7.33,0.91-11.301,1.424
		c1.074-15.369,2.131-30.51,3.189-45.65c0.303-4.354,0.566-8.711,0.943-13.057c0.166-1.918-0.479-2.723-2.467-2.742
		c-2.346-0.023-4.688-0.328-7.172-0.521c0-4.137,0-7.955,0-12.258c3.527,0,6.83,0,10.643,0c0.301-4.871,0.574-9.293,0.865-13.99
		c-3.539-0.396-6.842-0.768-10.719-1.201c0.27-3.826,0.541-7.697,0.824-11.748c2.816,0.141,5.408,0.135,7.965,0.434
		c2.266,0.264,3.148-0.404,3.154-2.781C991.462-754.752,991.792-758.596,992.017-763z"/>
	<g>
		<path fill-rule="evenodd" clip-rule="evenodd" d="M1623.098-709.225c0.564-19.596,6.719-36.795,22.328-49.467
			c18.477-15,45.668-11.895,62.295,6.734c23.385,26.199,20.5,69.688-6.145,92.619c-19.363,16.666-48.217,13.008-64.441-8.117
			C1626.709-681.031,1623.672-694.406,1623.098-709.225z M1672.897-724.182c-2.314-6.02-4.563-11.867-6.84-17.789
			c-8.301,3.08-13.84,8.602-18.48,15.531c3.947,4.473,7.814,8.855,11.816,13.393c-1.385,1.621-2.635,3.082-4.16,4.867
			c-3.969-3.869-7.588-7.396-11.395-11.107c-3.014,7.336-5.037,14.838-3.885,22.961c4.328,0.414,8.375,0.803,12.211,1.17
			c0,2.141,0,3.941,0,5.945c-4.023-0.182-7.721-0.348-12.35-0.559c1.701,5.227,3.236,9.941,4.955,15.219
			c3.902-3.439,7.139-6.291,10.418-9.18c1.477,1.217,2.672,2.203,3.967,3.271c-3.703,3.996-6.914,7.459-10.223,11.027
			c3.809,5.404,8.857,8.76,15.313,10.951c0.641-4.959,1.24-9.613,1.883-14.586c1.709,0.35,3.244,0.662,4.678,0.955
			c0,5.037,0,9.828,0,14.885c7.16-0.174,13.531-1.684,19.305-6.328c-2.76-5.492-5.469-10.889-8.229-16.383
			c1.77-1.072,3.125-1.896,4.59-2.787c2.908,4.871,5.699,9.545,8.938,14.969c2.523-3.822,4.682-7.107,6.854-10.383
			c1.313-1.979,1.111-3.477-0.887-5.063c-3.369-2.676-6.496-5.656-9.859-8.625c1.236-1.16,2.129-2,3.076-2.889
			c3.75,2.172,7.371,4.27,11.963,6.93c0.746-6.691,1.404-12.592,2.113-18.961c-4.572,0.342-8.145,0.609-11.637,0.869
			c-2.135-5.398-2.113-5.391,3.246-6.189c2.264-0.338,4.5-0.859,7.518-1.447c-2.543-5.988-4.826-11.371-7.404-17.445
			c-3.896,4.584-7.018,8.256-10.32,12.141c-1.42-1.188-2.615-2.188-3.879-3.244c2.883-4.877,5.598-9.473,8.396-14.207
			c-6.154-5.219-12.875-7.621-20.949-6.998c1.49,6.023,2.885,11.664,4.326,17.488
			C1676.139-725.203,1674.629-724.727,1672.897-724.182z"/>
		<path fill-rule="evenodd" clip-rule="evenodd" d="M1558.676-754.057c-7.762-0.709-14.877-0.971-21.857-2.084
			c-11.412-1.82-17.607-9.459-18.041-20.9c-0.131-3.43,2.182-3.244,4.082-3.854c0.271,0.195,0.434,0.248,0.467,0.346
			c4.098,11.828,8.846,15.846,21.391,15.23c13.523-0.664,26.984-2.617,40.467-4.066c10.26-1.104,20.461-2.701,30.826-0.475
			c3.803,0.816,4.977,2.387,4.148,6.002c-0.496,2.172-0.705,4.408-1.094,6.939c-14.111-2.232-28.154-2.301-42.623,1.475
			c2.301,36.027,4.598,72.029,6.932,108.588c-10.906-1.465-21.557-2.896-32.789-4.404
			C1553.288-685.598,1555.987-719.896,1558.676-754.057z M1567.239-707.244c-3.615-0.016-6.943,3.297-7.006,6.973
			c-0.061,3.664,3.189,6.957,6.906,6.998c3.691,0.041,6.957-3.176,7.006-6.902C1574.194-703.707,1570.752-707.23,1567.239-707.244z
			 M1567.057-716.527c3.455,0.078,5.617-2.012,5.635-5.453c0.02-3.266-2.004-5.402-5.227-5.52c-3.547-0.129-5.637,1.797-5.738,5.285
			C1561.624-718.656,1563.543-716.607,1567.057-716.527z M1572.69-677.059c-0.08-3.348-2.436-5.566-5.752-5.412
			c-3.295,0.15-5.238,2.215-5.211,5.529c0.029,3.457,2.203,5.52,5.697,5.4C1570.643-671.65,1572.766-673.875,1572.69-677.059z"/>
	</g>
	<path fill-rule="evenodd" clip-rule="evenodd" d="M1037.074-707.523c4.922,0.08,8.775,3.98,8.748,8.855
		c-0.027,5.09-3.961,8.883-9.121,8.801c-5.221-0.084-8.838-3.9-8.709-9.184C1028.109-703.871,1032.111-707.604,1037.074-707.523z"/>
	<path fill-rule="evenodd" clip-rule="evenodd" d="M1350.833-728.641c-5.781-1.432-11.049-2.736-16.666-4.125
		c1.781-3.701,3.334-7.053,5.02-10.336c0.357-0.699,1.107-1.477,1.824-1.666c3.818-1.014,7.686-1.85,11.973-2.85
		C1352.259-741.219,1351.582-735.236,1350.833-728.641z"/>
	<g>
		<path fill-rule="evenodd" clip-rule="evenodd" d="M2066.56-713.266c-0.34,19.01-6.09,34.951-19.018,47.879
			c-17.844,17.844-45.129,17.635-62.992-0.334c-22.57-22.705-24.678-62.973-4.598-87.848c19.732-24.447,54.221-23.676,73.42,1.531
			C2062.337-740.266,2066.281-726.928,2066.56-713.266z M2020.972-729.066c-1.852,0.586-3.363,1.063-5.094,1.607
			c-2.316-6.02-4.564-11.867-6.842-17.787c-8.299,3.078-13.84,8.6-18.48,15.529c3.949,4.473,7.814,8.855,11.818,13.395
			c-1.385,1.619-2.635,3.08-4.162,4.865c-3.969-3.867-7.588-7.396-11.436-11.145c-2.906,7.385-5.021,14.871-3.838,22.998
			c4.324,0.414,8.369,0.803,12.207,1.17c0,2.143,0,3.943,0,5.945c-4.025-0.182-7.723-0.35-12.352-0.557
			c1.701,5.225,3.236,9.939,4.955,15.217c3.902-3.439,7.141-6.291,10.416-9.178c1.479,1.217,2.676,2.203,3.971,3.27
			c-3.705,3.996-6.916,7.459-10.252,11.057c3.865,5.336,8.873,8.75,15.342,10.912c0.639-4.949,1.24-9.604,1.881-14.574
			c1.711,0.348,3.244,0.662,4.678,0.955c0,5.035,0,9.826,0,14.811c7.195,0.004,13.506-1.699,19.328-6.209
			c-2.781-5.537-5.492-10.936-8.252-16.428c1.77-1.076,3.127-1.898,4.59-2.789c2.908,4.871,5.699,9.545,8.938,14.969
			c2.523-3.824,4.684-7.107,6.855-10.383c1.313-1.979,1.109-3.477-0.889-5.063c-3.369-2.674-6.496-5.654-9.857-8.625
			c1.234-1.16,2.127-2,3.074-2.889c3.75,2.172,7.371,4.27,11.965,6.928c0.744-6.689,1.402-12.59,2.111-18.959
			c-4.572,0.342-8.145,0.609-11.637,0.871c-2.133-5.4-2.113-5.393,3.248-6.191c2.262-0.338,4.498-0.859,7.516-1.447
			c-2.541-5.99-4.826-11.371-7.404-17.445c-3.895,4.584-7.018,8.256-10.32,12.141c-1.42-1.188-2.615-2.186-3.879-3.244
			c2.883-4.877,5.6-9.473,8.396-14.207c-6.152-5.219-12.875-7.619-20.961-6.996C2018.087-740.611,2019.472-735.066,2020.972-729.066
			z"/>
		<path fill-rule="evenodd" clip-rule="evenodd" d="M2192.582-727.189c3.553,0,6.775,0.375,9.793-0.244
			c0.84-0.172,1.074-3.291,1.75-5.623c-4.066,0-7.715,0-11.482,0c0.311-3.086,0.572-5.66,0.838-8.303c3.512,0,6.828,0,10.572,0
			c0.361-2.336,0.75-4.836,1.221-7.889c-3.861,0-7.396,0-11.039,0c0-2.926,0-5.338,0-8.105c3.613,0.211,6.938,0.402,10.57,0.613
			c0.457-2.156,0.908-4.295,1.439-6.803c-3.965-0.283-7.609-0.543-11.643-0.832c0.229-4.479,0.434-8.512,0.656-12.865
			c16.008,1.754,31.729,0.867,46.752,5.844c11.752,3.893,20.197,11.133,23.641,23.408c0.328,1.166,0.518,2.369,0.836,3.85
			c-3.695,1.068-7.102,2.053-10.818,3.125c-0.605-2.797-1.008-5.229-1.666-7.59c-2.025-7.277-6.363-12.496-13.977-14.084
			c-6.414-1.34-12.938-2.148-19.766-3.25c-1.941,16.754-3.789,32.684-5.695,49.121c12.328-0.623,24.346-1.23,36.988-1.869
			c-2.932,6.596-5.617,12.947-8.674,19.117c-0.369,0.746-2.814,0.912-4.16,0.648c-7.943-1.545-15.844-3.303-23.762-4.977
			c-0.701-0.148-1.422-0.223-2.416-0.373c-2.191,16.088-4.355,31.969-6.672,48.973c8.994,0,17.564,0.051,26.131-0.074
			c0.879-0.012,1.99-0.877,2.57-1.662c2.447-3.307,4.584-6.857,7.162-10.053c0.934-1.158,2.742-2.105,4.227-2.225
			c3.838-0.309,7.719-0.104,12.123-0.104c0,7,0,14.547,0,22.311c-23.059-1.352-46.381-2.719-69.799-4.094
			C2189.724-676.672,2191.138-701.666,2192.582-727.189z"/>
		<path fill-rule="evenodd" clip-rule="evenodd" d="M2078.056-768.707c9.529-4.336,18.766-8.535,28.547-12.984
			c7.787,31.891,15.471,63.352,23.305,95.434c0.768-1.203,1.285-1.844,1.623-2.568c9.242-19.879,18.615-39.699,27.582-59.701
			c2.105-4.699,3.49-9.947,4.037-15.068c0.799-7.492-2.977-12.805-8.113-13.074c-6.912-0.361-12.807,5.084-13.24,12.426
			c-0.109,1.826,0.271,3.703,0.576,5.531c0.463,2.775,1.969,4.793,4.982,4.436c1.447-0.174,3.941-1.473,3.92-2.201
			c-0.064-2.137-1.152-4.242-2.141-7.295c1.098-0.271,3.611-1.73,5.342-1.086c1.682,0.629,3.285,3.277,3.652,5.273
			c0.957,5.223-1.09,8.676-5.451,10.719c-5.438,2.545-11.816,1.551-15.977-2.492c-6.686-6.5-6.623-18.604,0.299-24.893
			c6.256-5.686,13.701-7.746,21.865-5.512c7.738,2.119,11.326,8.18,12.807,15.605c1.865,9.338-0.721,18.184-4.322,26.51
			c-4.941,11.424-10.436,22.646-16.322,33.615c-9.318,17.365-17.941,35.008-24.416,53.648c-0.311,0.895-0.668,1.773-1.238,3.285
			C2109.492-689.246,2093.835-728.818,2078.056-768.707z M2095.972-759.861c4.344,11.684,7.035,23.271,7.891,35.256
			c0.162,2.264,1.037,3.721,3.873,3.135c-0.029-13.367-1.424-26.41-4.729-39.512C2100.626-760.602,2098.57-760.275,2095.972-759.861
			z"/>
		<path fill-rule="evenodd" clip-rule="evenodd" d="M1880.308-763.998c-3.777-0.502-7.311-0.973-10.926-1.451
			c0-3.811,0-7.379,0-11.014c13.863,0.975,27.527,1.934,41.732,2.932c-6.975,36.473-13.92,72.795-20.893,109.26
			c13.188,0.756,26.086,1.637,39,2.141c3.42,0.133,6.959-0.594,10.311-1.447c8.305-2.117,11.695-8.135,9.605-16.52
			c-0.443-1.785-0.979-3.549-1.5-5.422c1.672-0.932,3.164-1.766,4.85-2.703c3.506,5.598,5.789,11.537,5.979,17.947
			c0.168,5.684-2.957,9.867-7.898,12.686c-6.686,3.816-14.119,4.891-21.553,5.393c-15.051,1.014-30.135,1.535-45.197,2.387
			c-3.678,0.209-7.33,0.91-11.301,1.424c1.074-15.369,2.131-30.51,3.189-45.65c0.303-4.354,0.566-8.711,0.943-13.057
			c0.166-1.918-0.479-2.723-2.467-2.742c-2.346-0.023-4.688-0.328-7.172-0.521c0-4.137,0-7.955,0-12.258c3.527,0,6.83,0,10.643,0
			c0.301-4.871,0.574-9.293,0.865-13.99c-3.539-0.396-6.842-0.768-10.719-1.201c0.27-3.826,0.541-7.697,0.824-11.748
			c2.816,0.141,5.408,0.135,7.965,0.434c2.266,0.264,3.148-0.404,3.154-2.781C1879.753-755.75,1880.083-759.594,1880.308-763.998z"
			/>
		<path fill-rule="evenodd" clip-rule="evenodd" d="M1925.365-708.521c4.922,0.08,8.775,3.98,8.748,8.855
			c-0.027,5.09-3.961,8.883-9.121,8.801c-5.221-0.084-8.838-3.9-8.709-9.184C1916.4-704.869,1920.402-708.602,1925.365-708.521z"/>
		<path fill-rule="evenodd" clip-rule="evenodd" d="M2239.125-729.639c-5.781-1.432-11.049-2.736-16.666-4.125
			c1.781-3.701,3.334-7.053,5.02-10.336c0.357-0.699,1.107-1.477,1.824-1.666c3.818-1.014,7.686-1.85,11.973-2.85
			C2240.55-742.217,2239.873-736.234,2239.125-729.639z"/>
	</g>
</g>
<g>
	<path fill-rule="evenodd" clip-rule="evenodd" fill="#515151" d="M1148.275,67.577c-0.34,19.01-6.09,34.951-19.018,47.879
		c-17.844,17.844-45.129,17.635-62.992-0.334c-22.57-22.705-24.678-62.973-4.598-87.848c19.732-24.447,54.221-23.676,73.42,1.531
		C1144.052,40.577,1147.996,53.915,1148.275,67.577z M1102.687,51.776c-1.852,0.586-3.363,1.063-5.094,1.607
		c-2.316-6.02-4.564-11.867-6.842-17.787c-8.299,3.078-13.84,8.6-18.48,15.529c3.949,4.473,7.814,8.855,11.818,13.395
		c-1.385,1.619-2.635,3.08-4.162,4.865c-3.969-3.867-7.588-7.396-11.436-11.145c-2.906,7.385-5.021,14.871-3.838,22.998
		c4.324,0.414,8.369,0.803,12.207,1.17c0,2.143,0,3.943,0,5.945c-4.025-0.182-7.723-0.35-12.352-0.557
		c1.701,5.225,3.236,9.939,4.955,15.217c3.902-3.439,7.141-6.291,10.416-9.178c1.479,1.217,2.676,2.203,3.971,3.27
		c-3.705,3.996-6.916,7.459-10.252,11.057c3.865,5.336,8.873,8.75,15.342,10.912c0.639-4.949,1.24-9.604,1.881-14.574
		c1.711,0.348,3.244,0.662,4.678,0.955c0,5.035,0,9.826,0,14.811c7.195,0.004,13.506-1.699,19.328-6.209
		c-2.781-5.537-5.492-10.936-8.252-16.428c1.77-1.076,3.127-1.898,4.59-2.789c2.908,4.871,5.699,9.545,8.938,14.969
		c2.523-3.824,4.684-7.107,6.855-10.383c1.313-1.979,1.109-3.477-0.889-5.063c-3.369-2.674-6.496-5.654-9.857-8.625
		c1.234-1.16,2.127-2,3.074-2.889c3.75,2.172,7.371,4.27,11.965,6.928c0.744-6.689,1.402-12.59,2.111-18.959
		c-4.572,0.342-8.145,0.609-11.637,0.871c-2.133-5.4-2.113-5.393,3.248-6.191c2.262-0.338,4.498-0.859,7.516-1.447
		c-2.541-5.99-4.826-11.371-7.404-17.445c-3.895,4.584-7.018,8.256-10.32,12.141c-1.42-1.188-2.615-2.186-3.879-3.244
		c2.883-4.877,5.6-9.473,8.396-14.207c-6.152-5.219-12.875-7.619-20.961-6.996C1099.802,40.231,1101.187,45.776,1102.687,51.776z"/>
	<path fill-rule="evenodd" clip-rule="evenodd" fill="#515151" d="M1274.296,53.653c3.553,0,6.775,0.375,9.793-0.244
		c0.84-0.172,1.074-3.291,1.75-5.623c-4.066,0-7.715,0-11.482,0c0.311-3.086,0.572-5.66,0.838-8.303c3.512,0,6.828,0,10.572,0
		c0.361-2.336,0.75-4.836,1.221-7.889c-3.861,0-7.396,0-11.039,0c0-2.926,0-5.338,0-8.105c3.613,0.211,6.938,0.402,10.57,0.613
		c0.457-2.156,0.908-4.295,1.439-6.803c-3.965-0.283-7.609-0.543-11.643-0.832c0.229-4.479,0.434-8.512,0.656-12.865
		c16.008,1.754,31.729,0.867,46.752,5.844c11.752,3.893,20.197,11.133,23.641,23.408c0.328,1.166,0.518,2.369,0.836,3.85
		c-3.695,1.068-7.102,2.053-10.818,3.125c-0.605-2.797-1.008-5.229-1.666-7.59c-2.025-7.277-6.363-12.496-13.977-14.084
		c-6.414-1.34-12.938-2.148-19.766-3.25c-1.941,16.754-3.789,32.684-5.695,49.121c12.328-0.623,24.346-1.23,36.988-1.869
		c-2.932,6.596-5.617,12.947-8.674,19.117c-0.369,0.746-2.814,0.912-4.16,0.648c-7.943-1.545-15.844-3.303-23.762-4.977
		c-0.701-0.148-1.422-0.223-2.416-0.373c-2.191,16.088-4.355,31.969-6.672,48.973c8.994,0,17.564,0.051,26.131-0.074
		c0.879-0.012,1.99-0.877,2.57-1.662c2.447-3.307,4.584-6.857,7.162-10.053c0.934-1.158,2.742-2.105,4.227-2.225
		c3.838-0.309,7.719-0.104,12.123-0.104c0,7,0,14.547,0,22.311c-23.059-1.352-46.381-2.719-69.799-4.094
		C1271.439,104.171,1272.853,79.177,1274.296,53.653z"/>
	<path fill-rule="evenodd" clip-rule="evenodd" fill="#515151" d="M1159.771,12.136c9.529-4.336,18.766-8.535,28.547-12.984
		c7.787,31.891,15.471,63.352,23.305,95.434c0.768-1.203,1.285-1.844,1.623-2.568c9.242-19.879,18.615-39.699,27.582-59.701
		c2.105-4.699,3.49-9.947,4.037-15.068c0.799-7.492-2.977-12.805-8.113-13.074c-6.912-0.361-12.807,5.084-13.24,12.426
		c-0.109,1.826,0.271,3.703,0.576,5.531c0.463,2.775,1.969,4.793,4.982,4.436c1.447-0.174,3.941-1.473,3.92-2.201
		c-0.064-2.137-1.152-4.242-2.141-7.295c1.098-0.271,3.611-1.73,5.342-1.086c1.682,0.629,3.285,3.277,3.652,5.273
		c0.957,5.223-1.09,8.676-5.451,10.719c-5.438,2.545-11.816,1.551-15.977-2.492c-6.686-6.5-6.623-18.604,0.299-24.893
		c6.256-5.686,13.701-7.746,21.865-5.512c7.738,2.119,11.326,8.18,12.807,15.605c1.865,9.338-0.721,18.184-4.322,26.51
		c-4.941,11.424-10.436,22.646-16.322,33.615c-9.318,17.365-17.941,35.008-24.416,53.648c-0.311,0.895-0.668,1.773-1.238,3.285
		C1191.207,91.597,1175.55,52.024,1159.771,12.136z M1177.687,20.981c4.344,11.684,7.035,23.271,7.891,35.256
		c0.162,2.264,1.037,3.721,3.873,3.135c-0.029-13.367-1.424-26.41-4.729-39.512C1182.341,20.241,1180.285,20.567,1177.687,20.981z"
		/>
	<path fill-rule="evenodd" clip-rule="evenodd" fill="#515151" d="M962.023,16.845c-3.777-0.502-7.311-0.973-10.926-1.451
		c0-3.811,0-7.379,0-11.014c13.863,0.975,27.527,1.934,41.732,2.932c-6.975,36.473-13.92,72.795-20.893,109.26
		c13.188,0.756,26.086,1.637,39,2.141c3.42,0.133,6.959-0.594,10.311-1.447c8.305-2.117,11.695-8.135,9.605-16.52
		c-0.443-1.785-0.979-3.549-1.5-5.422c1.672-0.932,3.164-1.766,4.85-2.703c3.506,5.598,5.789,11.537,5.979,17.947
		c0.168,5.684-2.957,9.867-7.898,12.686c-6.686,3.816-14.119,4.891-21.553,5.393c-15.051,1.014-30.135,1.535-45.197,2.387
		c-3.678,0.209-7.33,0.91-11.301,1.424c1.074-15.369,2.131-30.51,3.189-45.65c0.303-4.354,0.566-8.711,0.943-13.057
		c0.166-1.918-0.479-2.723-2.467-2.742c-2.346-0.023-4.688-0.328-7.172-0.521c0-4.137,0-7.955,0-12.258c3.527,0,6.83,0,10.643,0
		c0.301-4.871,0.574-9.293,0.865-13.99c-3.539-0.396-6.842-0.768-10.719-1.201c0.27-3.826,0.541-7.697,0.824-11.748
		c2.816,0.141,5.408,0.135,7.965,0.434c2.266,0.264,3.148-0.404,3.154-2.781C961.468,25.093,961.798,21.249,962.023,16.845z"/>
	<g>
		<path fill-rule="evenodd" clip-rule="evenodd" fill="#515151" d="M1593.104,70.62c0.564-19.596,6.719-36.795,22.328-49.467
			c18.477-15,45.668-11.895,62.295,6.734c23.385,26.199,20.5,69.688-6.145,92.619c-19.363,16.666-48.217,13.008-64.441-8.117
			C1596.715,98.813,1593.678,85.438,1593.104,70.62z M1642.903,55.663c-2.314-6.02-4.563-11.867-6.84-17.789
			c-8.301,3.08-13.84,8.602-18.48,15.531c3.947,4.473,7.814,8.855,11.816,13.393c-1.385,1.621-2.635,3.082-4.16,4.867
			c-3.969-3.869-7.588-7.396-11.395-11.107c-3.014,7.336-5.037,14.838-3.885,22.961c4.328,0.414,8.375,0.803,12.211,1.17
			c0,2.141,0,3.941,0,5.945c-4.023-0.182-7.721-0.348-12.35-0.559c1.701,5.227,3.236,9.941,4.955,15.219
			c3.902-3.439,7.139-6.291,10.418-9.18c1.477,1.217,2.672,2.203,3.967,3.271c-3.703,3.996-6.914,7.459-10.223,11.027
			c3.809,5.404,8.857,8.76,15.313,10.951c0.641-4.959,1.24-9.613,1.883-14.586c1.709,0.35,3.244,0.662,4.678,0.955
			c0,5.037,0,9.828,0,14.885c7.16-0.174,13.531-1.684,19.305-6.328c-2.76-5.492-5.469-10.889-8.229-16.383
			c1.77-1.072,3.125-1.896,4.59-2.787c2.908,4.871,5.699,9.545,8.938,14.969c2.523-3.822,4.682-7.107,6.854-10.383
			c1.313-1.979,1.111-3.477-0.887-5.063c-3.369-2.676-6.496-5.656-9.859-8.625c1.236-1.16,2.129-2,3.076-2.889
			c3.75,2.172,7.371,4.27,11.963,6.93c0.746-6.691,1.404-12.592,2.113-18.961c-4.572,0.342-8.145,0.609-11.637,0.869
			c-2.135-5.398-2.113-5.391,3.246-6.189c2.264-0.338,4.5-0.859,7.518-1.447c-2.543-5.988-4.826-11.371-7.404-17.445
			c-3.896,4.584-7.018,8.256-10.32,12.141c-1.42-1.188-2.615-2.188-3.879-3.244c2.883-4.877,5.598-9.473,8.396-14.207
			c-6.154-5.219-12.875-7.621-20.949-6.998c1.49,6.023,2.885,11.664,4.326,17.488C1646.145,54.642,1644.635,55.118,1642.903,55.663z
			"/>
		<path fill-rule="evenodd" clip-rule="evenodd" fill="#515151" d="M1528.682,25.788c-7.762-0.709-14.877-0.971-21.857-2.084
			c-11.412-1.82-17.607-9.459-18.041-20.9c-0.131-3.43,2.182-3.244,4.082-3.854c0.271,0.195,0.434,0.248,0.467,0.346
			c4.098,11.828,8.846,15.846,21.391,15.23c13.523-0.664,26.984-2.617,40.467-4.066c10.26-1.104,20.461-2.701,30.826-0.475
			c3.803,0.816,4.977,2.387,4.148,6.002c-0.496,2.172-0.705,4.408-1.094,6.939c-14.111-2.232-28.154-2.301-42.623,1.475
			c2.301,36.027,4.598,72.029,6.932,108.588c-10.906-1.465-21.557-2.896-32.789-4.404
			C1523.293,94.247,1525.993,59.948,1528.682,25.788z M1537.245,72.601c-3.615-0.016-6.943,3.297-7.006,6.973
			c-0.061,3.664,3.189,6.957,6.906,6.998c3.691,0.041,6.957-3.176,7.006-6.902C1544.2,76.138,1540.758,72.614,1537.245,72.601z
			 M1537.063,63.317c3.455,0.078,5.617-2.012,5.635-5.453c0.02-3.266-2.004-5.402-5.227-5.52c-3.547-0.129-5.637,1.797-5.738,5.285
			C1531.629,61.188,1533.549,63.237,1537.063,63.317z M1542.696,102.786c-0.08-3.348-2.436-5.566-5.752-5.412
			c-3.295,0.15-5.238,2.215-5.211,5.529c0.029,3.457,2.203,5.52,5.697,5.4C1540.649,108.194,1542.772,105.97,1542.696,102.786z"/>
	</g>
	<path fill-rule="evenodd" clip-rule="evenodd" fill="#515151" d="M1007.08,72.321c4.922,0.08,8.775,3.98,8.748,8.855
		c-0.027,5.09-3.961,8.883-9.121,8.801c-5.221-0.084-8.838-3.9-8.709-9.184C998.115,75.974,1002.117,72.241,1007.08,72.321z"/>
	<path fill-rule="evenodd" clip-rule="evenodd" fill="#515151" d="M1320.839,51.204c-5.781-1.432-11.049-2.736-16.666-4.125
		c1.781-3.701,3.334-7.053,5.02-10.336c0.357-0.699,1.107-1.477,1.824-1.666c3.818-1.014,7.686-1.85,11.973-2.85
		C1322.265,38.626,1321.587,44.608,1320.839,51.204z"/>
	<g>
		<path fill-rule="evenodd" clip-rule="evenodd" fill="#515151" d="M2036.566,66.579c-0.34,19.01-6.09,34.951-19.018,47.879
			c-17.844,17.844-45.129,17.635-62.992-0.334c-22.57-22.705-24.678-62.973-4.598-87.848c19.732-24.447,54.221-23.676,73.42,1.531
			C2032.343,39.579,2036.287,52.917,2036.566,66.579z M1990.978,50.778c-1.852,0.586-3.363,1.063-5.094,1.607
			c-2.316-6.02-4.564-11.867-6.842-17.787c-8.299,3.078-13.84,8.6-18.48,15.529c3.949,4.473,7.814,8.855,11.818,13.395
			c-1.385,1.619-2.635,3.08-4.162,4.865c-3.969-3.867-7.588-7.396-11.436-11.145c-2.906,7.385-5.021,14.871-3.838,22.998
			c4.324,0.414,8.369,0.803,12.207,1.17c0,2.143,0,3.943,0,5.945c-4.025-0.182-7.723-0.35-12.352-0.557
			c1.701,5.225,3.236,9.939,4.955,15.217c3.902-3.439,7.141-6.291,10.416-9.178c1.479,1.217,2.676,2.203,3.971,3.27
			c-3.705,3.996-6.916,7.459-10.252,11.057c3.865,5.336,8.873,8.75,15.342,10.912c0.639-4.949,1.24-9.604,1.881-14.574
			c1.711,0.348,3.244,0.662,4.678,0.955c0,5.035,0,9.826,0,14.811c7.195,0.004,13.506-1.699,19.328-6.209
			c-2.781-5.537-5.492-10.936-8.252-16.428c1.77-1.076,3.127-1.898,4.59-2.789c2.908,4.871,5.699,9.545,8.938,14.969
			c2.523-3.824,4.684-7.107,6.855-10.383c1.313-1.979,1.109-3.477-0.889-5.063c-3.369-2.674-6.496-5.654-9.857-8.625
			c1.234-1.16,2.127-2,3.074-2.889c3.75,2.172,7.371,4.27,11.965,6.928c0.744-6.689,1.402-12.59,2.111-18.959
			c-4.572,0.342-8.145,0.609-11.637,0.871c-2.133-5.4-2.113-5.393,3.248-6.191c2.262-0.338,4.498-0.859,7.516-1.447
			c-2.541-5.99-4.826-11.371-7.404-17.445c-3.895,4.584-7.018,8.256-10.32,12.141c-1.42-1.188-2.615-2.186-3.879-3.244
			c2.883-4.877,5.6-9.473,8.396-14.207c-6.152-5.219-12.875-7.619-20.961-6.996C1988.093,39.233,1989.478,44.778,1990.978,50.778z"
			/>
		<path fill-rule="evenodd" clip-rule="evenodd" fill="#515151" d="M2162.587,52.655c3.553,0,6.775,0.375,9.793-0.244
			c0.84-0.172,1.074-3.291,1.75-5.623c-4.066,0-7.715,0-11.482,0c0.311-3.086,0.572-5.66,0.838-8.303c3.512,0,6.828,0,10.572,0
			c0.361-2.336,0.75-4.836,1.221-7.889c-3.861,0-7.396,0-11.039,0c0-2.926,0-5.338,0-8.105c3.613,0.211,6.938,0.402,10.57,0.613
			c0.457-2.156,0.908-4.295,1.439-6.803c-3.965-0.283-7.609-0.543-11.643-0.832c0.229-4.479,0.434-8.512,0.656-12.865
			c16.008,1.754,31.729,0.867,46.752,5.844c11.752,3.893,20.197,11.133,23.641,23.408c0.328,1.166,0.518,2.369,0.836,3.85
			c-3.695,1.068-7.102,2.053-10.818,3.125c-0.605-2.797-1.008-5.229-1.666-7.59c-2.025-7.277-6.363-12.496-13.977-14.084
			c-6.414-1.34-12.938-2.148-19.766-3.25c-1.941,16.754-3.789,32.684-5.695,49.121c12.328-0.623,24.346-1.23,36.988-1.869
			c-2.932,6.596-5.617,12.947-8.674,19.117c-0.369,0.746-2.814,0.912-4.16,0.648c-7.943-1.545-15.844-3.303-23.762-4.977
			c-0.701-0.148-1.422-0.223-2.416-0.373c-2.191,16.088-4.355,31.969-6.672,48.973c8.994,0,17.564,0.051,26.131-0.074
			c0.879-0.012,1.99-0.877,2.57-1.662c2.447-3.307,4.584-6.857,7.162-10.053c0.934-1.158,2.742-2.105,4.227-2.225
			c3.838-0.309,7.719-0.104,12.123-0.104c0,7,0,14.547,0,22.311c-23.059-1.352-46.381-2.719-69.799-4.094
			C2159.73,103.173,2161.144,78.179,2162.587,52.655z"/>
		<path fill-rule="evenodd" clip-rule="evenodd" fill="#515151" d="M2048.062,11.138c9.529-4.336,18.766-8.535,28.547-12.984
			c7.787,31.891,15.471,63.352,23.305,95.434c0.768-1.203,1.285-1.844,1.623-2.568c9.242-19.879,18.615-39.699,27.582-59.701
			c2.105-4.699,3.49-9.947,4.037-15.068c0.799-7.492-2.977-12.805-8.113-13.074c-6.912-0.361-12.807,5.084-13.24,12.426
			c-0.109,1.826,0.271,3.703,0.576,5.531c0.463,2.775,1.969,4.793,4.982,4.436c1.447-0.174,3.941-1.473,3.92-2.201
			c-0.064-2.137-1.152-4.242-2.141-7.295c1.098-0.271,3.611-1.73,5.342-1.086c1.682,0.629,3.285,3.277,3.652,5.273
			c0.957,5.223-1.09,8.676-5.451,10.719c-5.438,2.545-11.816,1.551-15.977-2.492c-6.686-6.5-6.623-18.604,0.299-24.893
			c6.256-5.686,13.701-7.746,21.865-5.512c7.738,2.119,11.326,8.18,12.807,15.605c1.865,9.338-0.721,18.184-4.322,26.51
			c-4.941,11.424-10.436,22.646-16.322,33.615c-9.318,17.365-17.941,35.008-24.416,53.648c-0.311,0.895-0.668,1.773-1.238,3.285
			C2079.498,90.599,2063.841,51.026,2048.062,11.138z M2065.978,19.983c4.344,11.684,7.035,23.271,7.891,35.256
			c0.162,2.264,1.037,3.721,3.873,3.135c-0.029-13.367-1.424-26.41-4.729-39.512C2070.632,19.243,2068.576,19.569,2065.978,19.983z"
			/>
		<path fill-rule="evenodd" clip-rule="evenodd" fill="#515151" d="M1850.314,15.847c-3.777-0.502-7.311-0.973-10.926-1.451
			c0-3.811,0-7.379,0-11.014c13.863,0.975,27.527,1.934,41.732,2.932c-6.975,36.473-13.92,72.795-20.893,109.26
			c13.188,0.756,26.086,1.637,39,2.141c3.42,0.133,6.959-0.594,10.311-1.447c8.305-2.117,11.695-8.135,9.605-16.52
			c-0.443-1.785-0.979-3.549-1.5-5.422c1.672-0.932,3.164-1.766,4.85-2.703c3.506,5.598,5.789,11.537,5.979,17.947
			c0.168,5.684-2.957,9.867-7.898,12.686c-6.686,3.816-14.119,4.891-21.553,5.393c-15.051,1.014-30.135,1.535-45.197,2.387
			c-3.678,0.209-7.33,0.91-11.301,1.424c1.074-15.369,2.131-30.51,3.189-45.65c0.303-4.354,0.566-8.711,0.943-13.057
			c0.166-1.918-0.479-2.723-2.467-2.742c-2.346-0.023-4.688-0.328-7.172-0.521c0-4.137,0-7.955,0-12.258c3.527,0,6.83,0,10.643,0
			c0.301-4.871,0.574-9.293,0.865-13.99c-3.539-0.396-6.842-0.768-10.719-1.201c0.27-3.826,0.541-7.697,0.824-11.748
			c2.816,0.141,5.408,0.135,7.965,0.434c2.266,0.264,3.148-0.404,3.154-2.781C1849.759,24.095,1850.089,20.251,1850.314,15.847z"/>
		<path fill-rule="evenodd" clip-rule="evenodd" fill="#515151" d="M1895.371,71.323c4.922,0.08,8.775,3.98,8.748,8.855
			c-0.027,5.09-3.961,8.883-9.121,8.801c-5.221-0.084-8.838-3.9-8.709-9.184C1886.406,74.976,1890.408,71.243,1895.371,71.323z"/>
		<path fill-rule="evenodd" clip-rule="evenodd" fill="#515151" d="M2209.13,50.206c-5.781-1.432-11.049-2.736-16.666-4.125
			c1.781-3.701,3.334-7.053,5.02-10.336c0.357-0.699,1.107-1.477,1.824-1.666c3.818-1.014,7.686-1.85,11.973-2.85
			C2210.556,37.628,2209.878,43.61,2209.13,50.206z"/>
	</g>
</g>
<g>
	<path fill-rule="evenodd" clip-rule="evenodd" fill="#FFFFFF" d="M1148.275,613.468c-0.34,19.01-6.09,34.951-19.018,47.879
		c-17.844,17.844-45.129,17.635-62.992-0.334c-22.57-22.705-24.678-62.973-4.598-87.848c19.732-24.447,54.221-23.676,73.42,1.531
		C1144.052,586.468,1147.996,599.806,1148.275,613.468z M1102.687,597.667c-1.852,0.586-3.363,1.063-5.094,1.607
		c-2.316-6.02-4.564-11.867-6.842-17.787c-8.299,3.078-13.84,8.6-18.48,15.529c3.949,4.473,7.814,8.855,11.818,13.395
		c-1.385,1.619-2.635,3.08-4.162,4.865c-3.969-3.867-7.588-7.396-11.436-11.145c-2.906,7.385-5.021,14.871-3.838,22.998
		c4.324,0.414,8.369,0.803,12.207,1.17c0,2.143,0,3.943,0,5.945c-4.025-0.182-7.723-0.35-12.352-0.557
		c1.701,5.225,3.236,9.939,4.955,15.217c3.902-3.439,7.141-6.291,10.416-9.178c1.479,1.217,2.676,2.203,3.971,3.27
		c-3.705,3.996-6.916,7.459-10.252,11.057c3.865,5.336,8.873,8.75,15.342,10.912c0.639-4.949,1.24-9.604,1.881-14.574
		c1.711,0.348,3.244,0.662,4.678,0.955c0,5.035,0,9.826,0,14.811c7.195,0.004,13.506-1.699,19.328-6.209
		c-2.781-5.537-5.492-10.936-8.252-16.428c1.77-1.076,3.127-1.898,4.59-2.789c2.908,4.871,5.699,9.545,8.938,14.969
		c2.523-3.824,4.684-7.107,6.855-10.383c1.313-1.979,1.109-3.477-0.889-5.063c-3.369-2.674-6.496-5.654-9.857-8.625
		c1.234-1.16,2.127-2,3.074-2.889c3.75,2.172,7.371,4.27,11.965,6.928c0.744-6.689,1.402-12.59,2.111-18.959
		c-4.572,0.342-8.145,0.609-11.637,0.871c-2.133-5.4-2.113-5.393,3.248-6.191c2.262-0.338,4.498-0.859,7.516-1.447
		c-2.541-5.99-4.826-11.371-7.404-17.445c-3.895,4.584-7.018,8.256-10.32,12.141c-1.42-1.188-2.615-2.186-3.879-3.244
		c2.883-4.877,5.6-9.473,8.396-14.207c-6.152-5.219-12.875-7.619-20.961-6.996C1099.802,586.122,1101.187,591.667,1102.687,597.667z
		"/>
	<path fill-rule="evenodd" clip-rule="evenodd" fill="#FFFFFF" d="M1274.296,599.544c3.553,0,6.775,0.375,9.793-0.244
		c0.84-0.172,1.074-3.291,1.75-5.623c-4.066,0-7.715,0-11.482,0c0.311-3.086,0.572-5.66,0.838-8.303c3.512,0,6.828,0,10.572,0
		c0.361-2.336,0.75-4.836,1.221-7.889c-3.861,0-7.396,0-11.039,0c0-2.926,0-5.338,0-8.105c3.613,0.211,6.938,0.402,10.57,0.613
		c0.457-2.156,0.908-4.295,1.439-6.803c-3.965-0.283-7.609-0.543-11.643-0.832c0.229-4.479,0.434-8.512,0.656-12.865
		c16.008,1.754,31.729,0.867,46.752,5.844c11.752,3.893,20.197,11.133,23.641,23.408c0.328,1.166,0.518,2.369,0.836,3.85
		c-3.695,1.068-7.102,2.053-10.818,3.125c-0.605-2.797-1.008-5.229-1.666-7.59c-2.025-7.277-6.363-12.496-13.977-14.084
		c-6.414-1.34-12.938-2.148-19.766-3.25c-1.941,16.754-3.789,32.684-5.695,49.121c12.328-0.623,24.346-1.23,36.988-1.869
		c-2.932,6.596-5.617,12.947-8.674,19.117c-0.369,0.746-2.814,0.912-4.16,0.648c-7.943-1.545-15.844-3.303-23.762-4.977
		c-0.701-0.148-1.422-0.223-2.416-0.373c-2.191,16.088-4.355,31.969-6.672,48.973c8.994,0,17.564,0.051,26.131-0.074
		c0.879-0.012,1.99-0.877,2.57-1.662c2.447-3.307,4.584-6.857,7.162-10.053c0.934-1.158,2.742-2.105,4.227-2.225
		c3.838-0.309,7.719-0.104,12.123-0.104c0,7,0,14.547,0,22.311c-23.059-1.352-46.381-2.719-69.799-4.094
		C1271.439,650.062,1272.853,625.067,1274.296,599.544z"/>
	<path fill-rule="evenodd" clip-rule="evenodd" fill="#FFFFFF" d="M1159.771,558.026c9.529-4.336,18.766-8.535,28.547-12.984
		c7.787,31.891,15.471,63.352,23.305,95.434c0.768-1.203,1.285-1.844,1.623-2.568c9.242-19.879,18.615-39.699,27.582-59.701
		c2.105-4.699,3.49-9.947,4.037-15.068c0.799-7.492-2.977-12.805-8.113-13.074c-6.912-0.361-12.807,5.084-13.24,12.426
		c-0.109,1.826,0.271,3.703,0.576,5.531c0.463,2.775,1.969,4.793,4.982,4.436c1.447-0.174,3.941-1.473,3.92-2.201
		c-0.064-2.137-1.152-4.242-2.141-7.295c1.098-0.271,3.611-1.73,5.342-1.086c1.682,0.629,3.285,3.277,3.652,5.273
		c0.957,5.223-1.09,8.676-5.451,10.719c-5.438,2.545-11.816,1.551-15.977-2.492c-6.686-6.5-6.623-18.604,0.299-24.893
		c6.256-5.686,13.701-7.746,21.865-5.512c7.738,2.119,11.326,8.18,12.807,15.605c1.865,9.338-0.721,18.184-4.322,26.51
		c-4.941,11.424-10.436,22.646-16.322,33.615c-9.318,17.365-17.941,35.008-24.416,53.648c-0.311,0.895-0.668,1.773-1.238,3.285
		C1191.207,637.487,1175.55,597.915,1159.771,558.026z M1177.687,566.872c4.344,11.684,7.035,23.271,7.891,35.256
		c0.162,2.264,1.037,3.721,3.873,3.135c-0.029-13.367-1.424-26.41-4.729-39.512C1182.341,566.132,1180.285,566.458,1177.687,566.872
		z"/>
	<path fill-rule="evenodd" clip-rule="evenodd" fill="#FFFFFF" d="M962.023,562.735c-3.777-0.502-7.311-0.973-10.926-1.451
		c0-3.811,0-7.379,0-11.014c13.863,0.975,27.527,1.934,41.732,2.932c-6.975,36.473-13.92,72.795-20.893,109.26
		c13.188,0.756,26.086,1.637,39,2.141c3.42,0.133,6.959-0.594,10.311-1.447c8.305-2.117,11.695-8.135,9.605-16.52
		c-0.443-1.785-0.979-3.549-1.5-5.422c1.672-0.932,3.164-1.766,4.85-2.703c3.506,5.598,5.789,11.537,5.979,17.947
		c0.168,5.684-2.957,9.867-7.898,12.686c-6.686,3.816-14.119,4.891-21.553,5.393c-15.051,1.014-30.135,1.535-45.197,2.387
		c-3.678,0.209-7.33,0.91-11.301,1.424c1.074-15.369,2.131-30.51,3.189-45.65c0.303-4.354,0.566-8.711,0.943-13.057
		c0.166-1.918-0.479-2.723-2.467-2.742c-2.346-0.023-4.688-0.328-7.172-0.521c0-4.137,0-7.955,0-12.258c3.527,0,6.83,0,10.643,0
		c0.301-4.871,0.574-9.293,0.865-13.99c-3.539-0.396-6.842-0.768-10.719-1.201c0.27-3.826,0.541-7.697,0.824-11.748
		c2.816,0.141,5.408,0.135,7.965,0.434c2.266,0.264,3.148-0.404,3.154-2.781C961.468,570.983,961.798,567.14,962.023,562.735z"/>
	<g>
		<path fill-rule="evenodd" clip-rule="evenodd" fill="#FFFFFF" d="M1593.104,616.511c0.564-19.596,6.719-36.795,22.328-49.467
			c18.477-15,45.668-11.895,62.295,6.734c23.385,26.199,20.5,69.688-6.145,92.619c-19.363,16.666-48.217,13.008-64.441-8.117
			C1596.715,644.704,1593.678,631.329,1593.104,616.511z M1642.903,601.554c-2.314-6.02-4.563-11.867-6.84-17.789
			c-8.301,3.08-13.84,8.602-18.48,15.531c3.947,4.473,7.814,8.855,11.816,13.393c-1.385,1.621-2.635,3.082-4.16,4.867
			c-3.969-3.869-7.588-7.396-11.395-11.107c-3.014,7.336-5.037,14.838-3.885,22.961c4.328,0.414,8.375,0.803,12.211,1.17
			c0,2.141,0,3.941,0,5.945c-4.023-0.182-7.721-0.348-12.35-0.559c1.701,5.227,3.236,9.941,4.955,15.219
			c3.902-3.439,7.139-6.291,10.418-9.18c1.477,1.217,2.672,2.203,3.967,3.271c-3.703,3.996-6.914,7.459-10.223,11.027
			c3.809,5.404,8.857,8.76,15.313,10.951c0.641-4.959,1.24-9.613,1.883-14.586c1.709,0.35,3.244,0.662,4.678,0.955
			c0,5.037,0,9.828,0,14.885c7.16-0.174,13.531-1.684,19.305-6.328c-2.76-5.492-5.469-10.889-8.229-16.383
			c1.77-1.072,3.125-1.896,4.59-2.787c2.908,4.871,5.699,9.545,8.938,14.969c2.523-3.822,4.682-7.107,6.854-10.383
			c1.313-1.979,1.111-3.477-0.887-5.063c-3.369-2.676-6.496-5.656-9.859-8.625c1.236-1.16,2.129-2,3.076-2.889
			c3.75,2.172,7.371,4.27,11.963,6.93c0.746-6.691,1.404-12.592,2.113-18.961c-4.572,0.342-8.145,0.609-11.637,0.869
			c-2.135-5.398-2.113-5.391,3.246-6.189c2.264-0.338,4.5-0.859,7.518-1.447c-2.543-5.988-4.826-11.371-7.404-17.445
			c-3.896,4.584-7.018,8.256-10.32,12.141c-1.42-1.188-2.615-2.188-3.879-3.244c2.883-4.877,5.598-9.473,8.396-14.207
			c-6.154-5.219-12.875-7.621-20.949-6.998c1.49,6.023,2.885,11.664,4.326,17.488
			C1646.145,600.532,1644.635,601.009,1642.903,601.554z"/>
		<path fill-rule="evenodd" clip-rule="evenodd" fill="#FFFFFF" d="M1528.682,571.679c-7.762-0.709-14.877-0.971-21.857-2.084
			c-11.412-1.82-17.607-9.459-18.041-20.9c-0.131-3.43,2.182-3.244,4.082-3.854c0.271,0.195,0.434,0.248,0.467,0.346
			c4.098,11.828,8.846,15.846,21.391,15.23c13.523-0.664,26.984-2.617,40.467-4.066c10.26-1.104,20.461-2.701,30.826-0.475
			c3.803,0.816,4.977,2.387,4.148,6.002c-0.496,2.172-0.705,4.408-1.094,6.939c-14.111-2.232-28.154-2.301-42.623,1.475
			c2.301,36.027,4.598,72.029,6.932,108.588c-10.906-1.465-21.557-2.896-32.789-4.404
			C1523.293,640.138,1525.993,605.839,1528.682,571.679z M1537.245,618.491c-3.615-0.016-6.943,3.297-7.006,6.973
			c-0.061,3.664,3.189,6.957,6.906,6.998c3.691,0.041,6.957-3.176,7.006-6.902C1544.2,622.028,1540.758,618.505,1537.245,618.491z
			 M1537.063,609.208c3.455,0.078,5.617-2.012,5.635-5.453c0.02-3.266-2.004-5.402-5.227-5.52c-3.547-0.129-5.637,1.797-5.738,5.285
			C1531.629,607.079,1533.549,609.128,1537.063,609.208z M1542.696,648.677c-0.08-3.348-2.436-5.566-5.752-5.412
			c-3.295,0.15-5.238,2.215-5.211,5.529c0.029,3.457,2.203,5.52,5.697,5.4C1540.649,654.085,1542.772,651.86,1542.696,648.677z"/>
	</g>
	<path fill-rule="evenodd" clip-rule="evenodd" fill="#FFFFFF" d="M1007.08,618.212c4.922,0.08,8.775,3.98,8.748,8.855
		c-0.027,5.09-3.961,8.883-9.121,8.801c-5.221-0.084-8.838-3.9-8.709-9.184C998.115,621.864,1002.117,618.132,1007.08,618.212z"/>
	<path fill-rule="evenodd" clip-rule="evenodd" fill="#FFFFFF" d="M1320.839,597.095c-5.781-1.432-11.049-2.736-16.666-4.125
		c1.781-3.701,3.334-7.053,5.02-10.336c0.357-0.699,1.107-1.477,1.824-1.666c3.818-1.014,7.686-1.85,11.973-2.85
		C1322.265,584.517,1321.587,590.499,1320.839,597.095z"/>
	<g>
		<path fill-rule="evenodd" clip-rule="evenodd" fill="#FFFFFF" d="M2036.566,612.47c-0.34,19.01-6.09,34.951-19.018,47.879
			c-17.844,17.844-45.129,17.635-62.992-0.334c-22.57-22.705-24.678-62.973-4.598-87.848c19.732-24.447,54.221-23.676,73.42,1.531
			C2032.343,585.47,2036.287,598.808,2036.566,612.47z M1990.978,596.669c-1.852,0.586-3.363,1.063-5.094,1.607
			c-2.316-6.02-4.564-11.867-6.842-17.787c-8.299,3.078-13.84,8.6-18.48,15.529c3.949,4.473,7.814,8.855,11.818,13.395
			c-1.385,1.619-2.635,3.08-4.162,4.865c-3.969-3.867-7.588-7.396-11.436-11.145c-2.906,7.385-5.021,14.871-3.838,22.998
			c4.324,0.414,8.369,0.803,12.207,1.17c0,2.143,0,3.943,0,5.945c-4.025-0.182-7.723-0.35-12.352-0.557
			c1.701,5.225,3.236,9.939,4.955,15.217c3.902-3.439,7.141-6.291,10.416-9.178c1.479,1.217,2.676,2.203,3.971,3.27
			c-3.705,3.996-6.916,7.459-10.252,11.057c3.865,5.336,8.873,8.75,15.342,10.912c0.639-4.949,1.24-9.604,1.881-14.574
			c1.711,0.348,3.244,0.662,4.678,0.955c0,5.035,0,9.826,0,14.811c7.195,0.004,13.506-1.699,19.328-6.209
			c-2.781-5.537-5.492-10.936-8.252-16.428c1.77-1.076,3.127-1.898,4.59-2.789c2.908,4.871,5.699,9.545,8.938,14.969
			c2.523-3.824,4.684-7.107,6.855-10.383c1.313-1.979,1.109-3.477-0.889-5.063c-3.369-2.674-6.496-5.654-9.857-8.625
			c1.234-1.16,2.127-2,3.074-2.889c3.75,2.172,7.371,4.27,11.965,6.928c0.744-6.689,1.402-12.59,2.111-18.959
			c-4.572,0.342-8.145,0.609-11.637,0.871c-2.133-5.4-2.113-5.393,3.248-6.191c2.262-0.338,4.498-0.859,7.516-1.447
			c-2.541-5.99-4.826-11.371-7.404-17.445c-3.895,4.584-7.018,8.256-10.32,12.141c-1.42-1.188-2.615-2.186-3.879-3.244
			c2.883-4.877,5.6-9.473,8.396-14.207c-6.152-5.219-12.875-7.619-20.961-6.996C1988.093,585.124,1989.478,590.669,1990.978,596.669
			z"/>
		<path fill-rule="evenodd" clip-rule="evenodd" fill="#FFFFFF" d="M2162.587,598.546c3.553,0,6.775,0.375,9.793-0.244
			c0.84-0.172,1.074-3.291,1.75-5.623c-4.066,0-7.715,0-11.482,0c0.311-3.086,0.572-5.66,0.838-8.303c3.512,0,6.828,0,10.572,0
			c0.361-2.336,0.75-4.836,1.221-7.889c-3.861,0-7.396,0-11.039,0c0-2.926,0-5.338,0-8.105c3.613,0.211,6.938,0.402,10.57,0.613
			c0.457-2.156,0.908-4.295,1.439-6.803c-3.965-0.283-7.609-0.543-11.643-0.832c0.229-4.479,0.434-8.512,0.656-12.865
			c16.008,1.754,31.729,0.867,46.752,5.844c11.752,3.893,20.197,11.133,23.641,23.408c0.328,1.166,0.518,2.369,0.836,3.85
			c-3.695,1.068-7.102,2.053-10.818,3.125c-0.605-2.797-1.008-5.229-1.666-7.59c-2.025-7.277-6.363-12.496-13.977-14.084
			c-6.414-1.34-12.938-2.148-19.766-3.25c-1.941,16.754-3.789,32.684-5.695,49.121c12.328-0.623,24.346-1.23,36.988-1.869
			c-2.932,6.596-5.617,12.947-8.674,19.117c-0.369,0.746-2.814,0.912-4.16,0.648c-7.943-1.545-15.844-3.303-23.762-4.977
			c-0.701-0.148-1.422-0.223-2.416-0.373c-2.191,16.088-4.355,31.969-6.672,48.973c8.994,0,17.564,0.051,26.131-0.074
			c0.879-0.012,1.99-0.877,2.57-1.662c2.447-3.307,4.584-6.857,7.162-10.053c0.934-1.158,2.742-2.105,4.227-2.225
			c3.838-0.309,7.719-0.104,12.123-0.104c0,7,0,14.547,0,22.311c-23.059-1.352-46.381-2.719-69.799-4.094
			C2159.73,649.063,2161.144,624.069,2162.587,598.546z"/>
		<path fill-rule="evenodd" clip-rule="evenodd" fill="#FFFFFF" d="M2048.062,557.028c9.529-4.336,18.766-8.535,28.547-12.984
			c7.787,31.891,15.471,63.352,23.305,95.434c0.768-1.203,1.285-1.844,1.623-2.568c9.242-19.879,18.615-39.699,27.582-59.701
			c2.105-4.699,3.49-9.947,4.037-15.068c0.799-7.492-2.977-12.805-8.113-13.074c-6.912-0.361-12.807,5.084-13.24,12.426
			c-0.109,1.826,0.271,3.703,0.576,5.531c0.463,2.775,1.969,4.793,4.982,4.436c1.447-0.174,3.941-1.473,3.92-2.201
			c-0.064-2.137-1.152-4.242-2.141-7.295c1.098-0.271,3.611-1.73,5.342-1.086c1.682,0.629,3.285,3.277,3.652,5.273
			c0.957,5.223-1.09,8.676-5.451,10.719c-5.438,2.545-11.816,1.551-15.977-2.492c-6.686-6.5-6.623-18.604,0.299-24.893
			c6.256-5.686,13.701-7.746,21.865-5.512c7.738,2.119,11.326,8.18,12.807,15.605c1.865,9.338-0.721,18.184-4.322,26.51
			c-4.941,11.424-10.436,22.646-16.322,33.615c-9.318,17.365-17.941,35.008-24.416,53.648c-0.311,0.895-0.668,1.773-1.238,3.285
			C2079.498,636.489,2063.841,596.917,2048.062,557.028z M2065.978,565.874c4.344,11.684,7.035,23.271,7.891,35.256
			c0.162,2.264,1.037,3.721,3.873,3.135c-0.029-13.367-1.424-26.41-4.729-39.512C2070.632,565.134,2068.576,565.46,2065.978,565.874
			z"/>
		<path fill-rule="evenodd" clip-rule="evenodd" fill="#FFFFFF" d="M1850.314,561.737c-3.777-0.502-7.311-0.973-10.926-1.451
			c0-3.811,0-7.379,0-11.014c13.863,0.975,27.527,1.934,41.732,2.932c-6.975,36.473-13.92,72.795-20.893,109.26
			c13.188,0.756,26.086,1.637,39,2.141c3.42,0.133,6.959-0.594,10.311-1.447c8.305-2.117,11.695-8.135,9.605-16.52
			c-0.443-1.785-0.979-3.549-1.5-5.422c1.672-0.932,3.164-1.766,4.85-2.703c3.506,5.598,5.789,11.537,5.979,17.947
			c0.168,5.684-2.957,9.867-7.898,12.686c-6.686,3.816-14.119,4.891-21.553,5.393c-15.051,1.014-30.135,1.535-45.197,2.387
			c-3.678,0.209-7.33,0.91-11.301,1.424c1.074-15.369,2.131-30.51,3.189-45.65c0.303-4.354,0.566-8.711,0.943-13.057
			c0.166-1.918-0.479-2.723-2.467-2.742c-2.346-0.023-4.688-0.328-7.172-0.521c0-4.137,0-7.955,0-12.258c3.527,0,6.83,0,10.643,0
			c0.301-4.871,0.574-9.293,0.865-13.99c-3.539-0.396-6.842-0.768-10.719-1.201c0.27-3.826,0.541-7.697,0.824-11.748
			c2.816,0.141,5.408,0.135,7.965,0.434c2.266,0.264,3.148-0.404,3.154-2.781C1849.759,569.985,1850.089,566.142,1850.314,561.737z"
			/>
		<path fill-rule="evenodd" clip-rule="evenodd" fill="#FFFFFF" d="M1895.371,617.214c4.922,0.08,8.775,3.98,8.748,8.855
			c-0.027,5.09-3.961,8.883-9.121,8.801c-5.221-0.084-8.838-3.9-8.709-9.184C1886.406,620.866,1890.408,617.134,1895.371,617.214z"
			/>
		<path fill-rule="evenodd" clip-rule="evenodd" fill="#FFFFFF" d="M2209.13,596.097c-5.781-1.432-11.049-2.736-16.666-4.125
			c1.781-3.701,3.334-7.053,5.02-10.336c0.357-0.699,1.107-1.477,1.824-1.666c3.818-1.014,7.686-1.85,11.973-2.85
			C2210.556,583.519,2209.878,589.501,2209.13,596.097z"/>
	</g>
</g>
</svg>
