<?xml version="1.0" encoding="utf-8"?>
<!-- Generator: Adobe Illustrator 16.0.0, SVG Export Plug-In . SVG Version: 6.00 Build 0)  -->
<!DOCTYPE svg PUBLIC "-//W3C//DTD SVG 1.1//EN" "http://www.w3.org/Graphics/SVG/1.1/DTD/svg11.dtd">
<svg version="1.1" id="Layer_1" xmlns="http://www.w3.org/2000/svg" xmlns:xlink="http://www.w3.org/1999/xlink" x="0px" y="0px"
	 width="399.477px" height="586.544px" viewBox="207.946 111.811 399.477 586.544"
	 enable-background="new 207.946 111.811 399.477 586.544" xml:space="preserve">
<g>
	<g>
		<path fill="#515151" d="M407.496,181.189c-0.34,19.01-6.09,34.952-19.018,47.88c-17.844,17.845-45.129,17.635-62.992-0.335
			c-22.57-22.704-24.678-62.972-4.598-87.848c19.731-24.446,54.221-23.676,73.42,1.531
			C403.273,154.189,407.218,167.527,407.496,181.189z M361.908,165.391c-1.852,0.584-3.362,1.061-5.094,1.607
			c-2.316-6.021-4.563-11.869-6.842-17.789c-8.299,3.08-13.84,8.601-18.48,15.529c3.949,4.474,7.814,8.855,11.818,13.395
			c-1.385,1.62-2.635,3.082-4.162,4.866c-3.969-3.868-7.588-7.396-11.436-11.146c-2.906,7.386-5.021,14.871-3.839,22.999
			c4.324,0.415,8.369,0.803,12.207,1.171c0,2.141,0,3.941,0,5.945c-4.024-0.184-7.723-0.35-12.352-0.559
			c1.701,5.226,3.236,9.94,4.955,15.219c3.902-3.439,7.141-6.293,10.416-9.18c1.479,1.218,2.676,2.203,3.971,3.27
			c-3.705,3.997-6.916,7.461-10.252,11.058c3.865,5.336,8.873,8.75,15.342,10.913c0.64-4.95,1.24-9.605,1.881-14.576
			c1.712,0.35,3.244,0.662,4.679,0.955c0,5.036,0,9.828,0,14.811c7.194,0.005,13.506-1.697,19.328-6.209
			c-2.781-5.536-5.492-10.935-8.252-16.428c1.77-1.074,3.127-1.898,4.59-2.787c2.908,4.87,5.699,9.545,8.938,14.969
			c2.523-3.824,4.685-7.108,6.855-10.383c1.313-1.98,1.108-3.479-0.89-5.064c-3.368-2.674-6.495-5.654-9.856-8.625
			c1.233-1.16,2.127-1.999,3.074-2.889c3.75,2.172,7.371,4.27,11.965,6.93c0.744-6.69,1.401-12.59,2.11-18.959
			c-4.571,0.341-8.145,0.607-11.637,0.869c-2.133-5.399-2.113-5.392,3.248-6.191c2.262-0.337,4.498-0.858,7.516-1.446
			c-2.54-5.989-4.825-11.372-7.403-17.444c-3.896,4.582-7.019,8.255-10.32,12.14c-1.42-1.188-2.615-2.188-3.879-3.244
			c2.883-4.878,5.6-9.474,8.396-14.208c-6.152-5.218-12.875-7.619-20.962-6.996C359.023,153.844,360.408,159.389,361.908,165.391z"
			/>
		<path fill="#515151" d="M401.527,409.236c0.564-19.596,6.719-36.795,22.328-49.467c18.477-15,45.668-11.895,62.295,6.734
			c23.385,26.199,20.5,69.688-6.145,92.619c-19.363,16.666-48.218,13.008-64.441-8.117
			C405.139,437.43,402.102,424.055,401.527,409.236z M451.326,394.279c-2.313-6.02-4.563-11.867-6.84-17.789
			c-8.301,3.08-13.84,8.602-18.479,15.531c3.946,4.473,7.813,8.855,11.815,13.393c-1.385,1.621-2.635,3.082-4.16,4.867
			c-3.969-3.869-7.588-7.396-11.395-11.107c-3.014,7.336-5.037,14.838-3.885,22.961c4.328,0.414,8.375,0.804,12.211,1.17
			c0,2.142,0,3.941,0,5.945c-4.023-0.182-7.722-0.348-12.351-0.559c1.701,5.227,3.236,9.94,4.955,15.219
			c3.902-3.439,7.14-6.291,10.418-9.18c1.478,1.217,2.672,2.202,3.967,3.271c-3.702,3.996-6.913,7.459-10.223,11.027
			c3.81,5.403,8.857,8.76,15.313,10.951c0.641-4.96,1.239-9.613,1.883-14.587c1.709,0.351,3.244,0.662,4.678,0.955
			c0,5.037,0,9.828,0,14.886c7.16-0.175,13.531-1.685,19.305-6.328c-2.76-5.492-5.469-10.89-8.229-16.383
			c1.77-1.072,3.125-1.896,4.59-2.787c2.908,4.871,5.699,9.545,8.938,14.969c2.522-3.822,4.682-7.107,6.854-10.383
			c1.313-1.979,1.111-3.478-0.887-5.063c-3.369-2.676-6.496-5.656-9.859-8.625c1.236-1.16,2.129-2,3.076-2.889
			c3.75,2.172,7.371,4.27,11.963,6.93c0.746-6.69,1.404-12.592,2.113-18.961c-4.572,0.342-8.146,0.609-11.637,0.869
			c-2.136-5.398-2.113-5.391,3.245-6.189c2.265-0.338,4.5-0.858,7.519-1.446c-2.543-5.988-4.826-11.371-7.404-17.445
			c-3.896,4.584-7.018,8.256-10.32,12.141c-1.42-1.188-2.614-2.188-3.879-3.244c2.884-4.877,5.599-9.473,8.396-14.207
			c-6.154-5.219-12.875-7.621-20.949-6.998c1.49,6.023,2.885,11.664,4.326,17.488C454.568,393.258,453.059,393.734,451.326,394.279z
			"/>
		<path fill="#515151" d="M533.518,167.267c3.553,0,6.775,0.376,9.793-0.243c0.84-0.172,1.074-3.292,1.75-5.624
			c-4.066,0-7.715,0-11.482,0c0.312-3.086,0.572-5.66,0.839-8.302c3.512,0,6.827,0,10.571,0c0.361-2.338,0.75-4.836,1.222-7.89
			c-3.861,0-7.396,0-11.039,0c0-2.927,0-5.339,0-8.104c3.612,0.209,6.938,0.402,10.569,0.613c0.457-2.158,0.908-4.296,1.439-6.805
			c-3.965-0.282-7.609-0.543-11.643-0.831c0.229-4.479,0.434-8.513,0.655-12.866c16.008,1.754,31.729,0.867,46.752,5.846
			c11.752,3.893,20.197,11.131,23.642,23.406c0.328,1.166,0.518,2.371,0.836,3.852c-3.695,1.066-7.103,2.051-10.818,3.125
			c-0.604-2.799-1.008-5.23-1.666-7.591c-2.025-7.276-6.363-12.495-13.977-14.085c-6.414-1.339-12.938-2.148-19.767-3.249
			c-1.94,16.754-3.789,32.683-5.694,49.12c12.328-0.623,24.346-1.229,36.987-1.867c-2.932,6.594-5.616,12.947-8.674,19.116
			c-0.369,0.745-2.813,0.911-4.16,0.649c-7.942-1.547-15.844-3.303-23.762-4.979c-0.701-0.148-1.422-0.221-2.416-0.373
			c-2.191,16.088-4.354,31.97-6.672,48.974c8.994,0,17.563,0.05,26.131-0.074c0.879-0.013,1.99-0.878,2.57-1.661
			c2.446-3.309,4.584-6.857,7.162-10.054c0.934-1.157,2.741-2.105,4.227-2.225c3.838-0.31,7.719-0.104,12.123-0.104
			c0,7,0,14.549,0,22.313c-23.06-1.354-46.381-2.721-69.799-4.096C530.66,217.785,532.074,192.789,533.518,167.267z"/>
		<path fill="#515151" d="M418.992,125.748c9.529-4.335,18.767-8.535,28.547-12.984c7.787,31.891,15.472,63.354,23.306,95.435
			c0.768-1.202,1.285-1.844,1.623-2.569c9.242-19.878,18.614-39.697,27.582-59.7c2.104-4.7,3.489-9.948,4.037-15.069
			c0.799-7.492-2.978-12.805-8.113-13.072c-6.912-0.362-12.808,5.082-13.24,12.424c-0.109,1.828,0.271,3.703,0.576,5.531
			c0.463,2.777,1.969,4.793,4.981,4.436c1.447-0.172,3.941-1.473,3.921-2.201c-0.064-2.137-1.152-4.242-2.142-7.294
			c1.099-0.271,3.611-1.731,5.342-1.085c1.683,0.627,3.285,3.277,3.652,5.273c0.957,5.223-1.09,8.675-5.451,10.717
			c-5.438,2.547-11.815,1.551-15.977-2.492c-6.687-6.498-6.623-18.604,0.299-24.892c6.256-5.685,13.701-7.745,21.865-5.512
			c7.737,2.118,11.326,8.179,12.807,15.604c1.865,9.339-0.721,18.184-4.322,26.512c-4.94,11.424-10.436,22.645-16.321,33.615
			c-9.318,17.364-17.941,35.007-24.416,53.648c-0.312,0.895-0.668,1.771-1.238,3.284
			C450.428,205.209,434.771,165.637,418.992,125.748z M436.908,134.594c4.345,11.684,7.035,23.271,7.892,35.257
			c0.162,2.265,1.037,3.721,3.873,3.134c-0.029-13.366-1.425-26.41-4.729-39.51C441.563,133.854,439.507,134.181,436.908,134.594z"
			/>
		<path fill="#515151" d="M221.244,130.457c-3.777-0.502-7.311-0.971-10.926-1.451c0-3.81,0-7.377,0-11.014
			c13.863,0.975,27.527,1.934,41.731,2.933c-6.975,36.472-13.92,72.794-20.893,109.261c13.188,0.755,26.086,1.635,39,2.139
			c3.42,0.134,6.959-0.592,10.311-1.447c8.306-2.117,11.695-8.134,9.605-16.52c-0.443-1.785-0.979-3.549-1.5-5.421
			c1.672-0.932,3.164-1.765,4.85-2.704c3.507,5.599,5.789,11.537,5.979,17.947c0.168,5.684-2.957,9.867-7.898,12.687
			c-6.686,3.815-14.118,4.89-21.553,5.392c-15.051,1.016-30.135,1.536-45.197,2.389c-3.678,0.207-7.33,0.908-11.301,1.422
			c1.074-15.368,2.131-30.51,3.189-45.65c0.303-4.354,0.565-8.709,0.942-13.057c0.166-1.918-0.479-2.723-2.467-2.742
			c-2.346-0.021-4.688-0.328-7.172-0.521c0-4.136,0-7.955,0-12.258c3.527,0,6.83,0,10.643,0c0.302-4.871,0.574-9.293,0.865-13.99
			c-3.539-0.396-6.842-0.766-10.719-1.2c0.27-3.825,0.541-7.696,0.824-11.747c2.815,0.139,5.407,0.133,7.965,0.432
			c2.266,0.266,3.147-0.402,3.154-2.781C220.689,138.707,221.02,134.861,221.244,130.457z"/>
		<path fill="#515151" d="M337.105,364.404c-7.762-0.709-14.877-0.971-21.857-2.084c-11.412-1.82-17.606-9.459-18.041-20.9
			c-0.131-3.43,2.183-3.244,4.082-3.854c0.271,0.195,0.435,0.248,0.467,0.346c4.099,11.828,8.847,15.846,21.392,15.23
			c13.523-0.664,26.984-2.617,40.467-4.066c10.261-1.104,20.461-2.701,30.826-0.475c3.803,0.816,4.978,2.387,4.148,6.002
			c-0.496,2.172-0.705,4.408-1.095,6.939c-14.11-2.232-28.153-2.301-42.623,1.475c2.302,36.027,4.599,72.029,6.933,108.588
			c-10.906-1.466-21.558-2.896-32.789-4.404C331.718,432.863,334.416,398.564,337.105,364.404z M345.669,411.217
			c-3.615-0.016-6.943,3.297-7.007,6.974c-0.061,3.663,3.189,6.957,6.906,6.997c3.691,0.041,6.957-3.176,7.006-6.901
			C352.623,414.754,349.182,411.23,345.669,411.217z M345.486,401.934c3.455,0.078,5.617-2.012,5.635-5.453
			c0.021-3.266-2.004-5.402-5.227-5.52c-3.547-0.129-5.637,1.797-5.738,5.285C340.053,399.805,341.973,401.854,345.486,401.934z
			 M351.119,441.402c-0.08-3.349-2.436-5.566-5.752-5.412c-3.295,0.149-5.237,2.215-5.211,5.528c0.029,3.457,2.203,5.521,5.697,5.4
			C349.072,446.811,351.195,444.586,351.119,441.402z"/>
		<path fill="#515151" d="M266.301,185.934c4.923,0.08,8.775,3.98,8.748,8.856c-0.026,5.09-3.961,8.884-9.12,8.801
			c-5.222-0.085-8.839-3.899-8.709-9.183C257.336,189.586,261.338,185.854,266.301,185.934z"/>
		<path fill="#515151" d="M580.061,164.816c-5.781-1.43-11.049-2.734-16.666-4.125c1.781-3.701,3.334-7.051,5.02-10.334
			c0.357-0.7,1.107-1.479,1.824-1.668c3.818-1.012,7.687-1.849,11.974-2.848C581.486,152.238,580.809,158.221,580.061,164.816z"/>
	</g>
	<path fill="#515151" d="M407.496,632.189c-0.34,19.012-6.09,34.953-19.018,47.881c-17.844,17.844-45.129,17.635-62.992-0.334
		c-22.57-22.705-24.678-62.973-4.598-87.85c19.731-24.445,54.221-23.674,73.42,1.533
		C403.273,605.191,407.218,618.529,407.496,632.189z M361.908,616.39c-1.852,0.586-3.362,1.064-5.094,1.607
		c-2.316-6.02-4.563-11.869-6.842-17.789c-8.299,3.08-13.84,8.602-18.48,15.529c3.949,4.475,7.814,8.857,11.818,13.395
		c-1.385,1.621-2.635,3.082-4.162,4.867c-3.969-3.869-7.588-7.396-11.436-11.146c-2.906,7.389-5.021,14.871-3.839,23
		c4.324,0.414,8.369,0.805,12.207,1.172c0,2.141,0,3.939,0,5.943c-4.024-0.182-7.723-0.35-12.352-0.559
		c1.701,5.227,3.236,9.941,4.955,15.219c3.902-3.439,7.141-6.291,10.416-9.18c1.479,1.219,2.676,2.203,3.971,3.27
		c-3.705,3.998-6.916,7.461-10.252,11.061c3.865,5.336,8.873,8.75,15.342,10.912c0.64-4.949,1.24-9.605,1.881-14.576
		c1.712,0.35,3.244,0.662,4.679,0.955c0,5.037,0,9.828,0,14.811c7.194,0.006,13.506-1.697,19.328-6.207
		c-2.781-5.537-5.492-10.936-8.252-16.43c1.77-1.074,3.127-1.898,4.59-2.787c2.908,4.871,5.699,9.545,8.938,14.969
		c2.523-3.824,4.685-7.107,6.855-10.383c1.313-1.979,1.108-3.477-0.89-5.063c-3.368-2.678-6.495-5.656-9.856-8.629
		c1.233-1.156,2.127-1.996,3.074-2.887c3.75,2.172,7.371,4.27,11.965,6.928c0.744-6.688,1.401-12.59,2.11-18.959
		c-4.571,0.344-8.145,0.607-11.637,0.869c-2.133-5.396-2.113-5.391,3.248-6.188c2.262-0.338,4.498-0.859,7.516-1.447
		c-2.54-5.99-4.825-11.371-7.403-17.445c-3.896,4.582-7.019,8.256-10.32,12.141c-1.42-1.188-2.615-2.188-3.879-3.244
		c2.883-4.877,5.6-9.473,8.396-14.207c-6.152-5.219-12.875-7.621-20.962-6.998C359.023,604.843,360.408,610.388,361.908,616.39z"/>
	<path fill="#515151" d="M533.518,618.267c3.553,0,6.775,0.375,9.793-0.242c0.84-0.174,1.074-3.291,1.75-5.623
		c-4.066,0-7.715,0-11.482,0c0.312-3.086,0.572-5.66,0.839-8.305c3.512,0,6.827,0,10.571,0c0.361-2.336,0.75-4.836,1.222-7.889
		c-3.861,0-7.396,0-11.039,0c0-2.928,0-5.34,0-8.104c3.612,0.209,6.938,0.4,10.569,0.611c0.457-2.156,0.908-4.295,1.439-6.803
		c-3.965-0.283-7.609-0.545-11.643-0.832c0.229-4.479,0.434-8.514,0.655-12.865c16.008,1.752,31.729,0.867,46.752,5.846
		c11.752,3.893,20.197,11.131,23.642,23.406c0.328,1.166,0.518,2.369,0.836,3.852c-3.695,1.066-7.103,2.051-10.818,3.125
		c-0.604-2.799-1.008-5.23-1.666-7.59c-2.025-7.277-6.363-12.496-13.977-14.088c-6.414-1.338-12.938-2.146-19.767-3.246
		c-1.94,16.754-3.789,32.684-5.694,49.117c12.328-0.619,24.346-1.229,36.987-1.865c-2.932,6.596-5.616,12.945-8.674,19.115
		c-0.369,0.746-2.813,0.91-4.16,0.648c-7.942-1.547-15.844-3.303-23.762-4.977c-0.701-0.148-1.422-0.223-2.416-0.375
		c-2.191,16.088-4.354,31.971-6.672,48.975c8.994,0,17.563,0.049,26.131-0.074c0.879-0.014,1.99-0.879,2.57-1.662
		c2.446-3.309,4.584-6.855,7.162-10.053c0.934-1.158,2.741-2.104,4.227-2.225c3.838-0.311,7.719-0.105,12.123-0.105
		c0,7,0,14.549,0,22.314c-23.06-1.355-46.381-2.723-69.799-4.096C530.66,668.785,532.074,643.791,533.518,618.267z"/>
	<path fill="#515151" d="M418.992,576.75c9.529-4.336,18.767-8.537,28.547-12.986c7.787,31.895,15.472,63.355,23.306,95.438
		c0.768-1.203,1.285-1.846,1.623-2.568c9.242-19.879,18.614-39.699,27.582-59.701c2.104-4.699,3.489-9.949,4.037-15.07
		c0.799-7.49-2.978-12.803-8.113-13.072c-6.912-0.361-12.808,5.084-13.24,12.424c-0.109,1.828,0.271,3.703,0.576,5.531
		c0.463,2.777,1.969,4.795,4.981,4.436c1.447-0.172,3.941-1.473,3.921-2.201c-0.064-2.135-1.152-4.24-2.142-7.293
		c1.099-0.27,3.611-1.729,5.342-1.086c1.683,0.627,3.285,3.277,3.652,5.273c0.957,5.223-1.09,8.676-5.451,10.717
		c-5.438,2.547-11.815,1.551-15.977-2.49c-6.687-6.5-6.623-18.604,0.299-24.893c6.256-5.686,13.701-7.746,21.865-5.512
		c7.737,2.119,11.326,8.178,12.807,15.605c1.865,9.338-0.721,18.182-4.322,26.51c-4.94,11.424-10.436,22.646-16.321,33.615
		c-9.318,17.365-17.941,35.008-24.416,53.648c-0.312,0.895-0.668,1.771-1.238,3.283C450.428,656.21,434.771,616.638,418.992,576.75z
		 M436.908,585.593c4.345,11.686,7.035,23.271,7.892,35.258c0.162,2.266,1.037,3.723,3.873,3.135
		c-0.029-13.365-1.425-26.408-4.729-39.512C441.563,584.853,439.507,585.181,436.908,585.593z"/>
	<path fill="#515151" d="M221.244,581.457c-3.777-0.502-7.311-0.971-10.926-1.451c0-3.809,0-7.377,0-11.014
		c13.863,0.975,27.527,1.936,41.731,2.934c-6.975,36.475-13.92,72.793-20.893,109.26c13.188,0.758,26.086,1.639,39,2.143
		c3.42,0.133,6.959-0.594,10.311-1.447c8.306-2.117,11.695-8.135,9.605-16.521c-0.443-1.785-0.979-3.547-1.5-5.42
		c1.672-0.932,3.164-1.766,4.85-2.705c3.507,5.6,5.789,11.537,5.979,17.947c0.168,5.684-2.957,9.867-7.898,12.688
		c-6.686,3.816-14.118,4.889-21.553,5.391c-15.051,1.018-30.135,1.537-45.197,2.391c-3.678,0.209-7.33,0.906-11.301,1.422
		c1.074-15.367,2.131-30.512,3.189-45.65c0.303-4.352,0.565-8.709,0.942-13.055c0.166-1.918-0.479-2.727-2.467-2.742
		c-2.346-0.023-4.688-0.33-7.172-0.523c0-4.135,0-7.953,0-12.256c3.527,0,6.83,0,10.643,0c0.302-4.873,0.574-9.295,0.865-13.992
		c-3.539-0.395-6.842-0.766-10.719-1.199c0.27-3.826,0.541-7.697,0.824-11.748c2.815,0.139,5.407,0.133,7.965,0.434
		c2.266,0.264,3.147-0.404,3.154-2.781C220.689,589.707,221.02,585.863,221.244,581.457z"/>
	<path fill="#515151" d="M266.301,636.935c4.923,0.078,8.775,3.98,8.748,8.855c-0.026,5.09-3.961,8.883-9.12,8.801
		c-5.222-0.084-8.839-3.898-8.709-9.184C257.336,640.587,261.338,636.855,266.301,636.935z"/>
	<path fill="#515151" d="M580.061,615.818c-5.781-1.432-11.049-2.736-16.666-4.127c1.781-3.699,3.334-7.051,5.02-10.334
		c0.357-0.699,1.107-1.477,1.824-1.668c3.818-1.012,7.687-1.848,11.974-2.848C581.486,603.24,580.809,609.222,580.061,615.818z"/>
</g>
</svg>
