<?xml version="1.0" encoding="utf-8"?>
<!-- Generator: Adobe Illustrator 16.0.0, SVG Export Plug-In . SVG Version: 6.00 Build 0)  -->
<!DOCTYPE svg PUBLIC "-//W3C//DTD SVG 1.1//EN" "http://www.w3.org/Graphics/SVG/1.1/DTD/svg11.dtd">
<svg version="1.1" id="Layer_1" xmlns="http://www.w3.org/2000/svg" xmlns:xlink="http://www.w3.org/1999/xlink" x="0px" y="0px"
	 width="1314.48px" height="168px" viewBox="0 0 1314.48 168" enable-background="new 0 0 1314.48 168" xml:space="preserve">
<g>
	<path fill-rule="evenodd" clip-rule="evenodd" fill="#FFFFFF" d="M218.496,86.907c-0.34,19.01-6.09,34.951-19.018,47.879
		c-17.844,17.844-45.129,17.635-62.992-0.334c-22.57-22.705-24.678-62.973-4.598-87.848c19.732-24.447,54.221-23.676,73.42,1.531
		C214.273,59.907,218.217,73.245,218.496,86.907z M172.908,71.106c-1.852,0.586-3.363,1.063-5.094,1.607
		c-2.316-6.02-4.564-11.867-6.842-17.787c-8.299,3.078-13.84,8.6-18.48,15.529c3.949,4.473,7.814,8.855,11.818,13.395
		c-1.385,1.619-2.635,3.08-4.162,4.865c-3.969-3.867-7.588-7.396-11.436-11.145c-2.906,7.385-5.021,14.871-3.838,22.998
		c4.324,0.414,8.369,0.803,12.207,1.17c0,2.143,0,3.943,0,5.945c-4.025-0.182-7.723-0.35-12.352-0.557
		c1.701,5.225,3.236,9.939,4.955,15.217c3.902-3.439,7.141-6.291,10.416-9.178c1.479,1.217,2.676,2.203,3.971,3.27
		c-3.705,3.996-6.916,7.459-10.252,11.057c3.865,5.336,8.873,8.75,15.342,10.912c0.639-4.949,1.24-9.604,1.881-14.574
		c1.711,0.348,3.244,0.662,4.678,0.955c0,5.035,0,9.826,0,14.811c7.195,0.004,13.506-1.699,19.328-6.209
		c-2.781-5.537-5.492-10.936-8.252-16.428c1.77-1.076,3.127-1.898,4.59-2.789c2.908,4.871,5.699,9.545,8.938,14.969
		c2.523-3.824,4.684-7.107,6.855-10.383c1.313-1.979,1.109-3.477-0.889-5.063c-3.369-2.674-6.496-5.654-9.857-8.625
		c1.234-1.16,2.127-2,3.074-2.889c3.75,2.172,7.371,4.27,11.965,6.928c0.744-6.689,1.402-12.59,2.111-18.959
		c-4.572,0.342-8.145,0.609-11.637,0.871c-2.133-5.4-2.113-5.393,3.248-6.191c2.262-0.338,4.498-0.859,7.516-1.447
		c-2.541-5.99-4.826-11.371-7.404-17.445c-3.895,4.584-7.018,8.256-10.32,12.141c-1.42-1.188-2.615-2.186-3.879-3.244
		c2.883-4.877,5.6-9.473,8.396-14.207c-6.152-5.219-12.875-7.619-20.961-6.996C170.023,59.562,171.408,65.106,172.908,71.106z"/>
	<path fill-rule="evenodd" clip-rule="evenodd" fill="#FFFFFF" d="M344.518,72.983c3.553,0,6.775,0.375,9.793-0.244
		c0.84-0.172,1.074-3.291,1.75-5.623c-4.066,0-7.715,0-11.482,0c0.311-3.086,0.572-5.66,0.838-8.303c3.512,0,6.828,0,10.572,0
		c0.361-2.336,0.75-4.836,1.221-7.889c-3.861,0-7.396,0-11.039,0c0-2.926,0-5.338,0-8.105c3.613,0.211,6.938,0.402,10.57,0.613
		c0.457-2.156,0.908-4.295,1.439-6.803c-3.965-0.283-7.609-0.543-11.643-0.832c0.229-4.479,0.434-8.512,0.656-12.865
		c16.008,1.754,31.729,0.867,46.752,5.844c11.752,3.893,20.197,11.133,23.641,23.408c0.328,1.166,0.518,2.369,0.836,3.85
		c-3.695,1.068-7.102,2.053-10.818,3.125c-0.605-2.797-1.008-5.229-1.666-7.59c-2.025-7.277-6.363-12.496-13.977-14.084
		c-6.414-1.34-12.938-2.148-19.766-3.25c-1.941,16.754-3.789,32.684-5.695,49.121c12.328-0.623,24.346-1.23,36.988-1.869
		c-2.932,6.596-5.617,12.947-8.674,19.117c-0.369,0.746-2.814,0.912-4.16,0.648c-7.943-1.545-15.844-3.303-23.762-4.977
		c-0.701-0.148-1.422-0.223-2.416-0.373c-2.191,16.088-4.355,31.969-6.672,48.973c8.994,0,17.564,0.051,26.131-0.074
		c0.879-0.012,1.99-0.877,2.57-1.662c2.447-3.307,4.584-6.857,7.162-10.053c0.934-1.158,2.742-2.105,4.227-2.225
		c3.838-0.309,7.719-0.104,12.123-0.104c0,7,0,14.547,0,22.311c-23.059-1.352-46.381-2.719-69.799-4.094
		C341.66,123.501,343.074,98.507,344.518,72.983z"/>
	<path fill-rule="evenodd" clip-rule="evenodd" fill="#FFFFFF" d="M229.992,31.466c9.529-4.336,18.766-8.535,28.547-12.984
		c7.787,31.891,15.471,63.352,23.305,95.434c0.768-1.203,1.285-1.844,1.623-2.568c9.242-19.879,18.615-39.699,27.582-59.701
		c2.105-4.699,3.49-9.947,4.037-15.068c0.799-7.492-2.977-12.805-8.113-13.074c-6.912-0.361-12.807,5.084-13.24,12.426
		c-0.109,1.826,0.271,3.703,0.576,5.531c0.463,2.775,1.969,4.793,4.982,4.436c1.447-0.174,3.941-1.473,3.92-2.201
		c-0.064-2.137-1.152-4.242-2.141-7.295c1.098-0.271,3.611-1.73,5.342-1.086c1.682,0.629,3.285,3.277,3.652,5.273
		c0.957,5.223-1.09,8.676-5.451,10.719c-5.438,2.545-11.816,1.551-15.977-2.492c-6.686-6.5-6.623-18.604,0.299-24.893
		c6.256-5.686,13.701-7.746,21.865-5.512c7.738,2.119,11.326,8.18,12.807,15.605c1.865,9.338-0.721,18.184-4.322,26.51
		c-4.941,11.424-10.436,22.646-16.322,33.615c-9.318,17.365-17.941,35.008-24.416,53.648c-0.311,0.895-0.668,1.773-1.238,3.285
		C261.428,110.927,245.771,71.354,229.992,31.466z M247.908,40.312c4.344,11.684,7.035,23.271,7.891,35.256
		c0.162,2.264,1.037,3.721,3.873,3.135c-0.029-13.367-1.424-26.41-4.729-39.512C252.563,39.571,250.506,39.897,247.908,40.312z"/>
	<path fill-rule="evenodd" clip-rule="evenodd" fill="#FFFFFF" d="M32.244,36.175c-3.777-0.502-7.311-0.973-10.926-1.451
		c0-3.811,0-7.379,0-11.014c13.863,0.975,27.527,1.934,41.732,2.932c-6.975,36.473-13.92,72.795-20.893,109.26
		c13.188,0.756,26.086,1.637,39,2.141c3.42,0.133,6.959-0.594,10.311-1.447c8.305-2.117,11.695-8.135,9.605-16.52
		c-0.443-1.785-0.979-3.549-1.5-5.422c1.672-0.932,3.164-1.766,4.85-2.703c3.506,5.598,5.789,11.537,5.979,17.947
		c0.168,5.684-2.957,9.867-7.898,12.686c-6.686,3.816-14.119,4.891-21.553,5.393c-15.051,1.014-30.135,1.535-45.197,2.387
		c-3.678,0.209-7.33,0.91-11.301,1.424c1.074-15.369,2.131-30.51,3.189-45.65c0.303-4.354,0.566-8.711,0.943-13.057
		c0.166-1.918-0.479-2.723-2.467-2.742c-2.346-0.023-4.688-0.328-7.172-0.521c0-4.137,0-7.955,0-12.258c3.527,0,6.83,0,10.643,0
		c0.301-4.871,0.574-9.293,0.865-13.99c-3.539-0.396-6.842-0.768-10.719-1.201c0.27-3.826,0.541-7.697,0.824-11.748
		c2.816,0.141,5.408,0.135,7.965,0.434c2.266,0.264,3.148-0.404,3.154-2.781C31.689,44.423,32.02,40.579,32.244,36.175z"/>
	<g>
		<path fill-rule="evenodd" clip-rule="evenodd" fill="#FFFFFF" d="M663.325,89.95c0.564-19.596,6.719-36.795,22.328-49.467
			c18.477-15,45.668-11.895,62.295,6.734c23.385,26.199,20.5,69.688-6.145,92.619c-19.363,16.666-48.217,13.008-64.441-8.117
			C666.937,118.144,663.899,104.769,663.325,89.95z M713.124,74.993c-2.314-6.02-4.563-11.867-6.84-17.789
			c-8.301,3.08-13.84,8.602-18.48,15.531c3.947,4.473,7.814,8.855,11.816,13.393c-1.385,1.621-2.635,3.082-4.16,4.867
			c-3.969-3.869-7.588-7.396-11.395-11.107c-3.014,7.336-5.037,14.838-3.885,22.961c4.328,0.414,8.375,0.803,12.211,1.17
			c0,2.141,0,3.941,0,5.945c-4.023-0.182-7.721-0.348-12.35-0.559c1.701,5.227,3.236,9.941,4.955,15.219
			c3.902-3.439,7.139-6.291,10.418-9.18c1.477,1.217,2.672,2.203,3.967,3.271c-3.703,3.996-6.914,7.459-10.223,11.027
			c3.809,5.404,8.857,8.76,15.313,10.951c0.641-4.959,1.24-9.613,1.883-14.586c1.709,0.35,3.244,0.662,4.678,0.955
			c0,5.037,0,9.828,0,14.885c7.16-0.174,13.531-1.684,19.305-6.328c-2.76-5.492-5.469-10.889-8.229-16.383
			c1.77-1.072,3.125-1.896,4.59-2.787c2.908,4.871,5.699,9.545,8.938,14.969c2.523-3.822,4.682-7.107,6.854-10.383
			c1.313-1.979,1.111-3.477-0.887-5.063c-3.369-2.676-6.496-5.656-9.859-8.625c1.236-1.16,2.129-2,3.076-2.889
			c3.75,2.172,7.371,4.27,11.963,6.93c0.746-6.691,1.404-12.592,2.113-18.961c-4.572,0.342-8.145,0.609-11.637,0.869
			c-2.135-5.398-2.113-5.391,3.246-6.189c2.264-0.338,4.5-0.859,7.518-1.447c-2.543-5.988-4.826-11.371-7.404-17.445
			c-3.896,4.584-7.018,8.256-10.32,12.141c-1.42-1.188-2.615-2.188-3.879-3.244c2.883-4.877,5.598-9.473,8.396-14.207
			c-6.154-5.219-12.875-7.621-20.949-6.998c1.49,6.023,2.885,11.664,4.326,17.488C716.366,73.972,714.856,74.448,713.124,74.993z"/>
		<path fill-rule="evenodd" clip-rule="evenodd" fill="#FFFFFF" d="M598.903,45.118c-7.762-0.709-14.877-0.971-21.857-2.084
			c-11.412-1.82-17.607-9.459-18.041-20.9c-0.131-3.43,2.182-3.244,4.082-3.854c0.271,0.195,0.434,0.248,0.467,0.346
			c4.098,11.828,8.846,15.846,21.391,15.23c13.523-0.664,26.984-2.617,40.467-4.066c10.26-1.104,20.461-2.701,30.826-0.475
			c3.803,0.816,4.977,2.387,4.148,6.002c-0.496,2.172-0.705,4.408-1.094,6.939c-14.111-2.232-28.154-2.301-42.623,1.475
			c2.301,36.027,4.598,72.029,6.932,108.588c-10.906-1.465-21.557-2.896-32.789-4.404
			C593.515,113.577,596.214,79.278,598.903,45.118z M607.466,91.931c-3.615-0.016-6.943,3.297-7.006,6.973
			c-0.061,3.664,3.189,6.957,6.906,6.998c3.691,0.041,6.957-3.176,7.006-6.902C614.421,95.468,610.979,91.944,607.466,91.931z
			 M607.284,82.647c3.455,0.078,5.617-2.012,5.635-5.453c0.02-3.266-2.004-5.402-5.227-5.52c-3.547-0.129-5.637,1.797-5.738,5.285
			C601.851,80.519,603.771,82.567,607.284,82.647z M612.917,122.116c-0.08-3.348-2.436-5.566-5.752-5.412
			c-3.295,0.15-5.238,2.215-5.211,5.529c0.029,3.457,2.203,5.52,5.697,5.4C610.87,127.524,612.993,125.3,612.917,122.116z"/>
	</g>
	<path fill-rule="evenodd" clip-rule="evenodd" fill="#FFFFFF" d="M77.301,91.651c4.922,0.08,8.775,3.98,8.748,8.855
		c-0.027,5.09-3.961,8.883-9.121,8.801c-5.221-0.084-8.838-3.9-8.709-9.184C68.336,95.304,72.338,91.571,77.301,91.651z"/>
	<path fill-rule="evenodd" clip-rule="evenodd" fill="#FFFFFF" d="M391.061,70.534c-5.781-1.432-11.049-2.736-16.666-4.125
		c1.781-3.701,3.334-7.053,5.02-10.336c0.357-0.699,1.107-1.477,1.824-1.666c3.818-1.014,7.686-1.85,11.973-2.85
		C392.486,57.956,391.809,63.938,391.061,70.534z"/>
	<g>
		<path fill-rule="evenodd" clip-rule="evenodd" fill="#FFFFFF" d="M1106.787,85.909c-0.34,19.01-6.09,34.951-19.018,47.879
			c-17.844,17.844-45.129,17.635-62.992-0.334c-22.57-22.705-24.678-62.973-4.598-87.848c19.732-24.447,54.221-23.676,73.42,1.531
			C1102.564,58.909,1106.508,72.247,1106.787,85.909z M1061.199,70.108c-1.852,0.586-3.363,1.063-5.094,1.607
			c-2.316-6.02-4.564-11.867-6.842-17.787c-8.299,3.078-13.84,8.6-18.48,15.529c3.949,4.473,7.814,8.855,11.818,13.395
			c-1.385,1.619-2.635,3.08-4.162,4.865c-3.969-3.867-7.588-7.396-11.436-11.145c-2.906,7.385-5.021,14.871-3.838,22.998
			c4.324,0.414,8.369,0.803,12.207,1.17c0,2.143,0,3.943,0,5.945c-4.025-0.182-7.723-0.35-12.352-0.557
			c1.701,5.225,3.236,9.939,4.955,15.217c3.902-3.439,7.141-6.291,10.416-9.178c1.479,1.217,2.676,2.203,3.971,3.27
			c-3.705,3.996-6.916,7.459-10.252,11.057c3.865,5.336,8.873,8.75,15.342,10.912c0.639-4.949,1.24-9.604,1.881-14.574
			c1.711,0.348,3.244,0.662,4.678,0.955c0,5.035,0,9.826,0,14.811c7.195,0.004,13.506-1.699,19.328-6.209
			c-2.781-5.537-5.492-10.936-8.252-16.428c1.77-1.076,3.127-1.898,4.59-2.789c2.908,4.871,5.699,9.545,8.938,14.969
			c2.523-3.824,4.684-7.107,6.855-10.383c1.313-1.979,1.109-3.477-0.889-5.063c-3.369-2.674-6.496-5.654-9.857-8.625
			c1.234-1.16,2.127-2,3.074-2.889c3.75,2.172,7.371,4.27,11.965,6.928c0.744-6.689,1.402-12.59,2.111-18.959
			c-4.572,0.342-8.145,0.609-11.637,0.871c-2.133-5.4-2.113-5.393,3.248-6.191c2.262-0.338,4.498-0.859,7.516-1.447
			c-2.541-5.99-4.826-11.371-7.404-17.445c-3.895,4.584-7.018,8.256-10.32,12.141c-1.42-1.188-2.615-2.186-3.879-3.244
			c2.883-4.877,5.6-9.473,8.396-14.207c-6.152-5.219-12.875-7.619-20.961-6.996C1058.314,58.563,1059.699,64.108,1061.199,70.108z"
			/>
		<path fill-rule="evenodd" clip-rule="evenodd" fill="#FFFFFF" d="M1232.809,71.985c3.553,0,6.775,0.375,9.793-0.244
			c0.84-0.172,1.074-3.291,1.75-5.623c-4.066,0-7.715,0-11.482,0c0.311-3.086,0.572-5.66,0.838-8.303c3.512,0,6.828,0,10.572,0
			c0.361-2.336,0.75-4.836,1.221-7.889c-3.861,0-7.396,0-11.039,0c0-2.926,0-5.338,0-8.105c3.613,0.211,6.938,0.402,10.57,0.613
			c0.457-2.156,0.908-4.295,1.439-6.803c-3.965-0.283-7.609-0.543-11.643-0.832c0.229-4.479,0.434-8.512,0.656-12.865
			c16.008,1.754,31.729,0.867,46.752,5.844c11.752,3.893,20.197,11.133,23.641,23.408c0.328,1.166,0.518,2.369,0.836,3.85
			c-3.695,1.068-7.102,2.053-10.818,3.125c-0.605-2.797-1.008-5.229-1.666-7.59c-2.025-7.277-6.363-12.496-13.977-14.084
			c-6.414-1.34-12.938-2.148-19.766-3.25c-1.941,16.754-3.789,32.684-5.695,49.121c12.328-0.623,24.346-1.23,36.988-1.869
			c-2.932,6.596-5.617,12.947-8.674,19.117c-0.369,0.746-2.814,0.912-4.16,0.648c-7.943-1.545-15.844-3.303-23.762-4.977
			c-0.701-0.148-1.422-0.223-2.416-0.373c-2.191,16.088-4.355,31.969-6.672,48.973c8.994,0,17.564,0.051,26.131-0.074
			c0.879-0.012,1.99-0.877,2.57-1.662c2.447-3.307,4.584-6.857,7.162-10.053c0.934-1.158,2.742-2.105,4.227-2.225
			c3.838-0.309,7.719-0.104,12.123-0.104c0,7,0,14.547,0,22.311c-23.059-1.352-46.381-2.719-69.799-4.094
			C1229.951,122.503,1231.365,97.509,1232.809,71.985z"/>
		<path fill-rule="evenodd" clip-rule="evenodd" fill="#FFFFFF" d="M1118.283,30.468c9.529-4.336,18.766-8.535,28.547-12.984
			c7.787,31.891,15.471,63.352,23.305,95.434c0.768-1.203,1.285-1.844,1.623-2.568c9.242-19.879,18.615-39.699,27.582-59.701
			c2.105-4.699,3.49-9.947,4.037-15.068c0.799-7.492-2.977-12.805-8.113-13.074c-6.912-0.361-12.807,5.084-13.24,12.426
			c-0.109,1.826,0.271,3.703,0.576,5.531c0.463,2.775,1.969,4.793,4.982,4.436c1.447-0.174,3.941-1.473,3.92-2.201
			c-0.064-2.137-1.152-4.242-2.141-7.295c1.098-0.271,3.611-1.73,5.342-1.086c1.682,0.629,3.285,3.277,3.652,5.273
			c0.957,5.223-1.09,8.676-5.451,10.719c-5.438,2.545-11.816,1.551-15.977-2.492c-6.686-6.5-6.623-18.604,0.299-24.893
			c6.256-5.686,13.701-7.746,21.865-5.512c7.738,2.119,11.326,8.18,12.807,15.605c1.865,9.338-0.721,18.184-4.322,26.51
			c-4.941,11.424-10.436,22.646-16.322,33.615c-9.318,17.365-17.941,35.008-24.416,53.648c-0.311,0.895-0.668,1.773-1.238,3.285
			C1149.719,109.929,1134.063,70.356,1118.283,30.468z M1136.199,39.313c4.344,11.684,7.035,23.271,7.891,35.256
			c0.162,2.264,1.037,3.721,3.873,3.135c-0.029-13.367-1.424-26.41-4.729-39.512C1140.854,38.573,1138.797,38.899,1136.199,39.313z"
			/>
		<path fill-rule="evenodd" clip-rule="evenodd" fill="#FFFFFF" d="M920.535,35.177c-3.777-0.502-7.311-0.973-10.926-1.451
			c0-3.811,0-7.379,0-11.014c13.863,0.975,27.527,1.934,41.732,2.932c-6.975,36.473-13.92,72.795-20.893,109.26
			c13.188,0.756,26.086,1.637,39,2.141c3.42,0.133,6.959-0.594,10.311-1.447c8.305-2.117,11.695-8.135,9.605-16.52
			c-0.443-1.785-0.979-3.549-1.5-5.422c1.672-0.932,3.164-1.766,4.85-2.703c3.506,5.598,5.789,11.537,5.979,17.947
			c0.168,5.684-2.957,9.867-7.898,12.686c-6.686,3.816-14.119,4.891-21.553,5.393c-15.051,1.014-30.135,1.535-45.197,2.387
			c-3.678,0.209-7.33,0.91-11.301,1.424c1.074-15.369,2.131-30.51,3.189-45.65c0.303-4.354,0.566-8.711,0.943-13.057
			c0.166-1.918-0.479-2.723-2.467-2.742c-2.346-0.023-4.688-0.328-7.172-0.521c0-4.137,0-7.955,0-12.258c3.527,0,6.83,0,10.643,0
			c0.301-4.871,0.574-9.293,0.865-13.99c-3.539-0.396-6.842-0.768-10.719-1.201c0.27-3.826,0.541-7.697,0.824-11.748
			c2.816,0.141,5.408,0.135,7.965,0.434c2.266,0.264,3.148-0.404,3.154-2.781C919.98,43.425,920.311,39.581,920.535,35.177z"/>
		<path fill-rule="evenodd" clip-rule="evenodd" fill="#FFFFFF" d="M965.592,90.653c4.922,0.08,8.775,3.98,8.748,8.855
			c-0.027,5.09-3.961,8.883-9.121,8.801c-5.221-0.084-8.838-3.9-8.709-9.184C956.627,94.306,960.629,90.573,965.592,90.653z"/>
		<path fill-rule="evenodd" clip-rule="evenodd" fill="#FFFFFF" d="M1279.352,69.536c-5.781-1.432-11.049-2.736-16.666-4.125
			c1.781-3.701,3.334-7.053,5.02-10.336c0.357-0.699,1.107-1.477,1.824-1.666c3.818-1.014,7.686-1.85,11.973-2.85
			C1280.777,56.958,1280.1,62.94,1279.352,69.536z"/>
	</g>
</g>
</svg>
